SplineFontDB: 3.2
FontName: SeriesOrbit
FullName: SeriesOrbit
FamilyName: SeriesOrbit
Weight: Book
Copyright: 1998 Victory Type...
Version: Macromedia Fontographer 4.1 7/20/99
ItalicAngle: 0
UnderlinePosition: -125
UnderlineWidth: 17
Ascent: 800
Descent: 200
InvalidEm: 0
sfntRevision: 0x00010000
LayerCount: 2
Layer: 0 1 "Back" 1
Layer: 1 1 "Fore" 0
XUID: [1021 281 -966634920 3432532]
StyleMap: 0x0040
FSType: 2
OS2Version: 1
OS2_WeightWidthSlopeOnly: 0
OS2_UseTypoMetrics: 0
CreationTime: 932482931
ModificationTime: 1776224439
PfmFamily: 81
TTFWeight: 400
TTFWidth: 5
LineGap: 0
VLineGap: 0
Panose: 0 0 4 0 0 0 0 0 0 0
OS2TypoAscent: 833
OS2TypoAOffset: 0
OS2TypoDescent: -177
OS2TypoDOffset: 0
OS2TypoLinegap: 0
OS2WinAscent: 833
OS2WinAOffset: 0
OS2WinDescent: 177
OS2WinDOffset: 0
HheadAscent: 833
HheadAOffset: 0
HheadDescent: -177
HheadDOffset: 0
OS2SubXSize: 700
OS2SubYSize: 650
OS2SubXOff: 0
OS2SubYOff: 143
OS2SupXSize: 700
OS2SupYSize: 650
OS2SupXOff: 0
OS2SupYOff: 453
OS2StrikeYSize: 50
OS2StrikeYPos: 259
OS2Vendor: 'MACR'
OS2CodePages: 00000001.00000000
OS2UnicodeRanges: 00000003.00000000.00000000.00000000
DEI: 91125
TtTable: prep
NPUSHB
 7
 2
 2
 1
 1
 0
 0
 1
SCANTYPE
PUSHW_1
 511
SCANCTRL
RCVT
ROUND[Grey]
WCVTP
RCVT
ROUND[Grey]
WCVTP
RCVT
ROUND[Grey]
WCVTP
PUSHB_4
 4
 3
 70
 0
CALL
PUSHB_4
 6
 5
 70
 0
CALL
PUSHB_2
 3
 3
RCVT
ROUND[Grey]
WCVTP
PUSHB_2
 5
 5
RCVT
ROUND[Grey]
WCVTP
EndTTInstrs
TtTable: fpgm
NPUSHB
 1
 0
FDEF
SROUND
RCVT
DUP
PUSHB_1
 3
CINDEX
RCVT
SWAP
SUB
ROUND[Grey]
RTG
SWAP
ROUND[Grey]
ADD
WCVTP
ENDF
EndTTInstrs
ShortTable: cvt  13
  -45
  726
  759
  164
  200
  140
  161
  23154
  23154
  23154
  23154
  4
  6
EndShort
ShortTable: maxp 16
  1
  0
  95
  100
  5
  0
  0
  2
  8
  64
  10
  0
  75
  165
  1
  1
EndShort
LangName: 1033 "" "" "Regular" "Macromedia Fontographer 4.1 SeriesOrbit" "" "Macromedia Fontographer 4.1 7/20/99"
Encoding: UnicodeBmp
UnicodeInterp: none
NameList: AGL For New Fonts
DisplaySize: -48
AntiAlias: 1
FitToEm: 0

StartChar: .notdef
Encoding: 65536 -1 0
Width: 500
GlyphClass: 1
Flags: W
LayerCount: 2
Fore
SplineSet
63 0 m 1,0,-1
 63 823 l 1,1,-1
 438 823 l 1,2,-1
 438 0 l 1,3,-1
 63 0 l 1,0,-1
125 63 m 1,4,-1
 375 63 l 1,5,-1
 375 761 l 1,6,-1
 125 761 l 1,7,-1
 125 63 l 1,4,-1
EndSplineSet
EndChar

StartChar: exclam
Encoding: 33 33 4
Width: 332
GlyphClass: 1
Flags: W
LayerCount: 2
Fore
SplineSet
290 702 m 1,0,1
 284 701 284 701 282 701 c 1,2,-1
 282 604 l 2,3,4
 282 586 282 586 276 584 c 0,5,6
 264 581 264 581 263 577 c 0,7,8
 265 555 265 555 265 540 c 0,9,10
 265 481 265 481 244 363 c 2,11,-1
 211 177 l 1,12,13
 72 195 72 195 22 195 c 1,14,15
 22 282 22 282 51 452.5 c 128,-1,16
 80 623 80 623 80 710 c 1,17,-1
 75 730 l 1,18,19
 89 728 89 728 159 721 c 0,20,21
 180 719 180 719 227 712 c 0,22,23
 283 704 283 704 290 702 c 1,0,1
127 -30 m 256,24,25
 88 -30 88 -30 60.5 -2.5 c 128,-1,26
 33 25 33 25 33 64 c 0,27,28
 33 101 33 101 64.5 127 c 128,-1,29
 96 153 96 153 133 153 c 0,30,31
 168 153 168 153 194.5 127.5 c 128,-1,32
 221 102 221 102 221 64 c 0,33,34
 221 25 221 25 193.5 -2.5 c 128,-1,35
 166 -30 166 -30 127 -30 c 256,24,25
EndSplineSet
EndChar

StartChar: quotedbl
Encoding: 34 34 5
Width: 354
GlyphClass: 1
Flags: W
LayerCount: 2
Fore
SplineSet
138 694 m 1,0,1
 143 640 143 640 151 535 c 2,2,-1
 154 474 l 1,3,-1
 33 468 l 1,4,-1
 30 528 l 2,5,6
 24 584 24 584 17 692 c 1,7,-1
 16 752 l 1,8,-1
 137 755 l 1,9,-1
 138 694 l 1,0,1
302 712 m 2,10,11
 302 680 302 680 310.5 620 c 128,-1,12
 319 560 319 560 319 530 c 2,13,-1
 319 469 l 1,14,-1
 198 469 l 1,15,-1
 198 530 l 2,16,17
 198 560 198 560 189.5 620 c 128,-1,18
 181 680 181 680 181 712 c 2,19,-1
 181 772 l 1,20,-1
 302 772 l 1,21,-1
 302 712 l 2,10,11
EndSplineSet
EndChar

StartChar: numbersign
Encoding: 35 35 6
Width: 773
GlyphClass: 1
Flags: W
LayerCount: 2
Fore
SplineSet
290 316 m 1,0,-1
 480 328 l 1,1,-1
 477 431 l 1,2,3
 464 430 464 430 437 430 c 0,4,5
 364 430 364 430 289 433 c 1,6,7
 289 355 289 355 290 316 c 1,0,-1
58 308 m 2,8,9
 93 308 93 308 169 310 c 1,10,11
 168 352 168 352 168 437 c 1,12,13
 142 438 142 438 90 438 c 2,14,-1
 30 438 l 1,15,-1
 30 585 l 1,16,-1
 90 585 l 2,17,18
 104 585 104 585 130 585 c 0,19,20
 156 584 156 584 169 584 c 1,21,-1
 169 677 l 1,22,-1
 290 677 l 1,23,-1
 290 580 l 1,24,25
 364 577 364 577 437 577 c 2,26,-1
 474 577 l 1,27,-1
 474 722 l 1,28,-1
 595 722 l 1,29,-1
 595 586 l 1,30,31
 639 588 639 588 663 588 c 2,32,-1
 724 588 l 1,33,-1
 724 442 l 1,34,-1
 663 442 l 2,35,36
 630 442 630 442 598 439 c 1,37,-1
 600 336 l 1,38,39
 611 336 611 336 737 330 c 1,40,-1
 733 184 l 1,41,-1
 692 186 l 1,42,-1
 603 189 l 1,43,44
 604 167 604 167 604 124 c 2,45,-1
 604 51 l 1,46,-1
 483 51 l 1,47,-1
 483 124 l 2,48,49
 483 158 483 158 482 175 c 1,50,51
 382 167 382 167 294 164 c 1,52,53
 296 127 296 127 302 53 c 1,54,-1
 182 36 l 1,55,56
 176 99 176 99 173 162 c 1,57,58
 133 161 133 161 58 161 c 2,59,-1
 17 161 l 1,60,-1
 17 308 l 1,61,-1
 58 308 l 2,8,9
EndSplineSet
EndChar

StartChar: dollar
Encoding: 36 36 7
Width: 568
GlyphClass: 1
Flags: W
LayerCount: 2
Fore
SplineSet
229 472 m 1,0,-1
 243 576 l 1,1,2
 218 556 218 556 203 526 c 1,3,4
 206 499 206 499 229 472 c 1,0,-1
303 256 m 1,5,-1
 297 210 l 1,6,-1
 285 129 l 1,7,8
 330 199 330 199 330 235 c 1,9,10
 318 244 318 244 303 256 c 1,5,-1
341 577 m 0,11,12
 340 576 340 576 340 574 c 0,13,14
 335 516 335 516 323 399 c 1,15,-1
 325 398 l 1,16,-1
 481 305 l 1,17,18
 503 236 503 236 503 216 c 0,19,20
 503 159 503 159 431.5 88.5 c 128,-1,21
 360 18 360 18 299 18 c 0,22,23
 289 18 289 18 269 20 c 1,24,-1
 250 -106 l 1,25,26
 184 -76 184 -76 158 -76 c 1,27,28
 162 -39 162 -39 172 46 c 1,29,30
 156 53 156 53 125 72 c 0,31,32
 31 130 31 130 31 202 c 2,33,-1
 31 259 l 1,34,-1
 52 262 l 2,35,36
 57 264 57 264 72 273 c 0,37,38
 73 274 73 274 83 274 c 0,39,40
 85 274 85 274 87 274 c 0,41,42
 90 273 90 273 91 273 c 1,43,-1
 91 272 l 1,44,45
 104 258 104 258 129 258 c 2,46,47
 129 258 129 258 152 258 c 1,48,49
 162 231 162 231 178 193 c 0,50,51
 184 178 184 178 187 171 c 1,52,53
 194 217 194 217 207 315 c 1,54,-1
 207 316 l 1,55,56
 130 359 130 359 94 393 c 0,57,58
 46 438 46 438 46 495 c 0,59,60
 46 551 46 551 102.5 627 c 128,-1,61
 159 703 159 703 213 716 c 0,62,63
 229 720 229 720 261 721 c 1,64,65
 269 796 269 796 269 799 c 2,66,-1
 269 833 l 1,67,68
 269 833 269 833 309 817 c 0,69,70
 312 816 312 816 341.5 802 c 128,-1,71
 371 788 371 788 373 785 c 0,72,73
 372 784 372 784 368 784 c 2,74,-1
 363 720 l 1,75,76
 398 708 398 708 451 656 c 0,77,78
 517 592 517 592 517 559 c 2,79,-1
 517 455 l 1,80,81
 496 455 496 455 451.5 462.5 c 128,-1,82
 407 470 407 470 384 470 c 1,83,84
 386 478 386 478 386 494 c 0,85,86
 386 551 386 551 341 577 c 0,11,12
EndSplineSet
EndChar

StartChar: percent
Encoding: 37 37 8
Width: 651
GlyphClass: 1
Flags: W
LayerCount: 2
Fore
SplineSet
504 536 m 2,0,1
 494 513 494 513 487 512 c 128,-1,2
 480 511 480 511 476 507 c 0,3,4
 469 490 469 490 455 458 c 0,5,6
 422 384 422 384 337 232 c 2,7,-1
 206 -2 l 1,8,9
 127 70 127 70 95 85 c 1,10,11
 146 198 146 198 265.5 415 c 128,-1,12
 385 632 385 632 436 745 c 1,13,-1
 444 773 l 1,14,15
 458 761 458 761 493 733 c 0,16,17
 495 731 495 731 532 697 c 0,18,19
 546 684 546 684 567 663 c 1,20,21
 566 662 566 662 562 665 c 1,22,-1
 504 536 l 2,0,1
281 595 m 0,23,24
 281 541 281 541 254 488 c 0,25,26
 218 418 218 418 153 418 c 0,27,28
 106 418 106 418 79 435 c 0,29,30
 50 449 50 449 32 490 c 0,31,32
 16 526 16 526 16 562 c 0,33,34
 16 603 16 603 40 647 c 0,35,36
 63 688 63 688 99.5 715.5 c 128,-1,37
 136 743 136 743 175 743 c 0,38,39
 242 743 242 743 266 690 c 0,40,41
 281 657 281 657 281 595 c 0,23,24
201 592 m 0,42,43
 201 622 201 622 176 659 c 1,44,45
 161 651 161 651 136 641 c 1,46,47
 95 573 95 573 95 552 c 0,48,49
 95 529 95 529 104 511 c 0,50,51
 116 489 116 489 137 489 c 0,52,53
 163 489 163 489 184 529 c 0,54,55
 201 563 201 563 201 592 c 0,42,43
615 162 m 0,56,57
 615 108 615 108 588 55 c 0,58,59
 552 -15 552 -15 486 -15 c 0,60,61
 447 -15 447 -15 412 2 c 0,62,63
 384 15 384 15 366 57 c 0,64,65
 350 94 350 94 350 129 c 0,66,67
 350 170 350 170 374 213 c 0,68,69
 396 253 396 253 433.5 282 c 128,-1,70
 471 311 471 311 509 311 c 0,71,72
 615 311 615 311 615 162 c 0,56,57
535 160 m 0,73,74
 535 189 535 189 510 226 c 0,75,76
 507 225 507 225 493.5 219 c 128,-1,77
 480 213 480 213 470 208 c 1,78,79
 429 144 429 144 429 119 c 0,80,81
 429 96 429 96 438 78 c 0,82,83
 450 56 450 56 470 56 c 0,84,85
 497 56 497 56 518 96 c 0,86,87
 535 130 535 130 535 160 c 0,73,74
EndSplineSet
EndChar

StartChar: ampersand
Encoding: 38 38 9
Width: 528
GlyphClass: 1
Flags: W
LayerCount: 2
Fore
SplineSet
80 432 m 2,0,1
 155 432 155 432 194 433 c 1,2,3
 192 501 192 501 192 532 c 2,4,-1
 192 593 l 1,5,-1
 313 593 l 1,6,-1
 313 532 l 2,7,8
 313 502 313 502 315 434 c 1,9,-1
 489 434 l 1,10,-1
 489 313 l 1,11,-1
 319 313 l 1,12,13
 322 247 322 247 322 187 c 2,14,-1
 322 126 l 1,15,-1
 201 126 l 1,16,-1
 201 187 l 2,17,18
 201 248 201 248 198 312 c 1,19,20
 158 311 158 311 80 311 c 2,21,-1
 19 311 l 1,22,-1
 19 432 l 1,23,-1
 80 432 l 2,0,1
EndSplineSet
EndChar

StartChar: quotesingle
Encoding: 39 39 10
Width: 181
GlyphClass: 1
Flags: W
LayerCount: 2
Fore
SplineSet
133 712 m 2,0,1
 133 680 133 680 141.5 620 c 128,-1,2
 150 560 150 560 150 530 c 2,3,-1
 150 469 l 1,4,-1
 29 469 l 1,5,-1
 29 530 l 2,6,7
 29 560 29 560 20.5 620 c 128,-1,8
 12 680 12 680 12 712 c 2,9,-1
 12 772 l 1,10,-1
 133 772 l 1,11,-1
 133 712 l 2,0,1
EndSplineSet
EndChar

StartChar: parenleft
Encoding: 40 40 11
Width: 339
GlyphClass: 1
Flags: W
LayerCount: 2
Fore
SplineSet
113 -97 m 0,1,2
 153 -148 153 -148 221 -151 c 0,3,4
 233 -152 233 -152 302 -140 c 1,5,-1
 309 38 l 1,6,7
 228 52 228 52 227 52 c 0,8,9
 190 66 190 66 175 116 c 0,10,11
 152 195 152 195 152 375 c 0,12,13
 152 417 152 417 154 439 c 0,14,15
 158 476 158 476 215 525 c 0,16,17
 257 562 257 562 261 565 c 0,18,19
 287 589 287 589 302 610 c 1,20,-1
 301 774 l 1,21,22
 216 764 216 764 170 740 c 0,23,24
 112 710 112 710 80 644 c 0,25,26
 34 549 34 549 15 372 c 0,27,28
 10 330 10 330 10 287 c 0,29,30
 10 172 10 172 43.5 60.5 c 128,-1,0
 77 -51 77 -51 113 -97 c 0,1,2
EndSplineSet
EndChar

StartChar: parenright
Encoding: 41 41 12
Width: 339
GlyphClass: 1
Flags: W
LayerCount: 2
Fore
SplineSet
207 -97 m 0,1,2
 166 -148 166 -148 98 -151 c 0,3,4
 87 -151 87 -151 18 -140 c 1,5,-1
 11 38 l 1,6,7
 52 45 52 45 93 52 c 1,8,9
 130 66 130 66 145 116 c 0,10,11
 169 193 169 193 169 371 c 0,12,13
 169 416 169 416 166 439 c 0,14,15
 162 475 162 475 104 525 c 0,16,17
 63 560 63 560 58 565 c 0,18,19
 33 589 33 589 18 610 c 1,20,-1
 19 774 l 1,21,22
 104 764 104 764 150 740 c 0,23,24
 208 710 208 710 240 644 c 0,25,26
 284 553 284 553 304 372 c 0,27,28
 309 328 309 328 309 284 c 0,29,30
 309 170 309 170 276 59.5 c 128,-1,0
 243 -51 243 -51 207 -97 c 0,1,2
EndSplineSet
EndChar

StartChar: asterisk
Encoding: 42 42 13
Width: 363
GlyphClass: 1
Flags: W
LayerCount: 2
Fore
SplineSet
353 678 m 1,0,-1
 293 581 l 1,1,-1
 353 483 l 1,2,-1
 239 486 l 1,3,-1
 184 386 l 1,4,-1
 129 486 l 1,5,-1
 15 483 l 1,6,-1
 75 581 l 1,7,-1
 15 678 l 1,8,-1
 129 675 l 1,9,-1
 184 776 l 1,10,-1
 239 675 l 1,11,-1
 353 678 l 1,0,-1
EndSplineSet
EndChar

StartChar: plus
Encoding: 43 43 14
Width: 528
GlyphClass: 1
Flags: W
LayerCount: 2
Fore
SplineSet
80 432 m 2,0,1
 155 432 155 432 194 433 c 1,2,3
 192 501 192 501 192 532 c 2,4,-1
 192 593 l 1,5,-1
 313 593 l 1,6,-1
 313 532 l 2,7,8
 313 502 313 502 315 434 c 1,9,-1
 489 434 l 1,10,-1
 489 313 l 1,11,-1
 319 313 l 1,12,13
 322 247 322 247 322 187 c 2,14,-1
 322 126 l 1,15,-1
 201 126 l 1,16,-1
 201 187 l 2,17,18
 201 248 201 248 198 312 c 1,19,20
 158 311 158 311 80 311 c 2,21,-1
 19 311 l 1,22,-1
 19 432 l 1,23,-1
 80 432 l 2,0,1
EndSplineSet
EndChar

StartChar: comma
Encoding: 44 44 15
Width: 279
GlyphClass: 1
Flags: W
LayerCount: 2
Fore
SplineSet
72 24 m 1,0,1
 63 42 63 42 63 64 c 0,2,3
 63 101 63 101 94.5 127 c 128,-1,4
 126 153 126 153 163 153 c 0,5,6
 198 153 198 153 224.5 127.5 c 128,-1,7
 251 102 251 102 251 64 c 0,8,9
 251 40 251 40 240 20 c 1,10,11
 237 -51 237 -51 168 -82 c 0,12,13
 125 -101 125 -101 22 -112 c 1,14,-1
 9 8 l 1,15,-1
 30 15 l 2,16,17
 46 17 46 17 72 24 c 1,0,1
EndSplineSet
EndChar

StartChar: hyphen
Encoding: 45 45 16
AltUni2: 002010.ffffffff.0 002010.ffffffff.0
Width: 414
GlyphClass: 1
Flags: W
LayerCount: 2
Fore
SplineSet
77 421 m 2,0,1
 246 421 246 421 378 404 c 1,2,-1
 363 284 l 1,3,4
 234 300 234 300 77 300 c 2,5,-1
 17 300 l 1,6,-1
 17 421 l 1,7,-1
 77 421 l 2,0,1
EndSplineSet
EndChar

StartChar: period
Encoding: 46 46 17
Width: 279
GlyphClass: 1
Flags: W
LayerCount: 2
Fore
SplineSet
130 -30 m 0,0,1
 90 -30 90 -30 63 -2.5 c 128,-1,2
 36 25 36 25 36 64 c 0,3,4
 36 101 36 101 67.5 127 c 128,-1,5
 99 153 99 153 136 153 c 0,6,7
 171 153 171 153 197.5 127.5 c 128,-1,8
 224 102 224 102 224 64 c 0,9,10
 224 25 224 25 196.5 -2.5 c 128,-1,11
 169 -30 169 -30 130 -30 c 0,0,1
EndSplineSet
EndChar

StartChar: slash
Encoding: 47 47 18
Width: 525
GlyphClass: 1
Flags: W
LayerCount: 2
Fore
SplineSet
438 554 m 2,0,1
 427 531 427 531 421 529 c 0,2,3
 412 529 412 529 408 525 c 0,4,5
 400 505 400 505 386 477 c 0,6,7
 346 397 346 397 259 254 c 2,8,-1
 119 24 l 1,9,10
 32 96 32 96 -1 110 c 1,11,12
 54 224 54 224 182 435 c 0,13,14
 312 650 312 650 366 760 c 1,15,-1
 374 787 l 1,16,17
 387 777 387 777 426 747 c 0,18,19
 442 735 442 735 468 712 c 2,20,-1
 506 679 l 1,21,22
 505 678 505 678 500 680 c 1,23,-1
 438 554 l 2,0,1
EndSplineSet
EndChar

StartChar: zero
Encoding: 48 48 19
Width: 678
GlyphClass: 1
Flags: W
LayerCount: 2
Fore
SplineSet
639 418 m 0,0,1
 644 381 644 381 644 345 c 0,2,3
 644 249 644 249 610 155 c 0,4,5
 547 -20 547 -20 390 -25 c 0,6,7
 353 -26 353 -26 298 -15 c 128,-1,8
 243 -4 243 -4 209 11 c 0,9,10
 138 42 138 42 81 141 c 0,11,12
 29 230 29 230 17 317 c 0,13,14
 14 340 14 340 14 363 c 0,15,16
 14 441 14 441 48 524 c 0,17,18
 88 621 88 621 160 689 c 0,19,20
 244 768 244 768 338 771 c 0,21,22
 495 777 495 777 572 647 c 0,23,24
 619 567 619 567 639 418 c 0,0,1
366 564 m 1,25,26
 330 544 330 544 278 518 c 1,27,28
 202 352 202 352 209 298 c 256,29,30
 216 244 216 244 245 200 c 0,31,32
 281 146 281 146 329 147 c 0,33,34
 392 149 392 149 428 246 c 0,35,36
 452 309 452 309 452 367 c 0,37,38
 452 461 452 461 366 564 c 1,25,26
EndSplineSet
EndChar

StartChar: one
Encoding: 49 49 20
Width: 332
GlyphClass: 1
Flags: W
LayerCount: 2
Fore
SplineSet
297 533 m 2,0,1
 297 508 297 508 291 505.5 c 128,-1,2
 285 503 285 503 277 497 c 1,3,4
 279 481 279 481 279 446 c 0,5,6
 279 364 279 364 257 205 c 2,7,-1
 222 -48 l 1,8,9
 71 -24 71 -24 22 -25 c 1,10,11
 22 103 22 103 52 326 c 0,12,13
 53 336 53 336 69 418 c 0,14,15
 79 475 79 475 79 511 c 1,16,-1
 10 602 l 1,17,-1
 7 702 l 1,18,19
 64 700 64 700 166 692 c 0,20,21
 192 688 192 688 238 680 c 2,22,-1
 306 667 l 1,23,24
 304 666 304 666 297 666 c 1,25,-1
 297 533 l 2,0,1
EndSplineSet
EndChar

StartChar: two
Encoding: 50 50 21
Width: 705
GlyphClass: 1
Flags: W
LayerCount: 2
Fore
SplineSet
282 246 m 0,0,1
 301 262 301 262 339 278 c 0,2,3
 374 293 374 293 389 307 c 0,4,5
 414 329 414 329 428 373 c 1,6,7
 378 468 378 468 285 517 c 0,8,9
 207 558 207 558 131 558 c 0,10,11
 111 558 111 558 86 556 c 1,12,-1
 118 740 l 1,13,14
 173 750 173 750 219 750 c 0,15,16
 324 750 324 750 436 686 c 0,17,18
 531 632 531 632 566 599 c 0,19,20
 622 545 622 545 631 468 c 0,21,22
 633 454 633 454 633 426 c 0,23,24
 634 335 634 335 605 268.5 c 128,-1,25
 576 202 576 202 508 135 c 1,26,-1
 682 135 l 1,27,-1
 682 -58 l 1,28,-1
 27 -58 l 1,29,-1
 3 -44 l 1,30,-1
 82 97 l 1,31,32
 178 162 178 162 282 246 c 0,0,1
EndSplineSet
EndChar

StartChar: three
Encoding: 51 51 22
Width: 558
GlyphClass: 1
Flags: W
LayerCount: 2
Fore
SplineSet
36 411 m 1,0,1
 34 421 34 421 68 432 c 0,2,3
 70 433 70 433 186 467 c 0,4,5
 315 505 315 505 331 546 c 1,6,7
 320 609 320 609 190 636 c 0,8,9
 80 659 80 659 -5 660 c 1,10,11
 3 698 3 698 26 775 c 1,12,13
 210 772 210 772 337 742 c 0,14,15
 518 699 518 699 531 605 c 0,16,17
 533 591 533 591 533 579 c 0,18,19
 533 469 533 469 408 396 c 0,20,21
 385 383 385 383 366 375 c 1,22,23
 544 328 544 328 544 216 c 0,24,25
 544 106 544 106 419 33 c 0,26,27
 277 -50 277 -50 57 -48 c 0,28,29
 12 -47 12 -47 11 -48 c 1,30,31
 39 13 39 13 34 34.5 c 128,-1,32
 29 56 29 56 197 104 c 0,33,34
 326 141 326 141 341 183 c 1,35,36
 331 246 331 246 201 273 c 0,37,38
 94 296 94 296 5 297 c 1,39,40
 9 312 9 312 36 411 c 1,0,1
EndSplineSet
EndChar

StartChar: four
Encoding: 52 52 23
Width: 782
GlyphClass: 1
Flags: W
LayerCount: 2
Fore
SplineSet
220 776 m 1,0,1
 216 756 216 756 216 728 c 0,2,3
 216 695 216 695 223 634 c 128,-1,4
 230 573 230 573 230 554 c 0,5,6
 230 524 230 524 220 517 c 1,7,8
 252 517 252 517 307.5 511 c 128,-1,9
 363 505 363 505 391 505 c 0,10,11
 437 505 437 505 481 517 c 1,12,13
 489 593 489 593 489 721 c 1,14,-1
 483 749 l 1,15,16
 506 744 506 744 571 737 c 0,17,18
 587 734 587 734 644 724 c 0,19,20
 660 721 660 721 711 711 c 1,21,22
 704 710 704 710 702 710 c 1,23,-1
 702 515 l 2,24,25
 702 491 702 491 696 488 c 0,26,27
 683 483 683 483 682 479 c 0,28,29
 684 449 684 449 684 420 c 0,30,31
 684 357 684 357 662 197 c 2,32,-1
 627 -57 l 1,33,34
 477 -33 477 -33 427 -34 c 1,35,36
 427 82 427 82 464 341 c 1,37,38
 412 342 412 342 353 332 c 0,39,40
 291 322 291 322 255 322 c 0,41,42
 228 322 228 322 197 325 c 2,43,-1
 52 340 l 1,44,-1
 67 555 l 1,45,-1
 52 776 l 1,46,-1
 220 776 l 1,0,1
EndSplineSet
EndChar

StartChar: five
Encoding: 53 53 24
Width: 638
GlyphClass: 1
Flags: W
LayerCount: 2
Fore
SplineSet
438 51 m 0,0,1
 363 23 363 23 54 -12 c 1,2,-1
 10 135 l 1,3,4
 155 136 155 136 306 170 c 1,5,6
 314 180 314 180 368 216 c 0,7,8
 412 245 412 245 412 264 c 0,9,10
 412 275 412 275 393.5 298 c 128,-1,11
 375 321 375 321 349 340 c 1,12,-1
 217 390 l 1,13,-1
 45 419 l 1,14,-1
 37 439 l 1,15,-1
 29 475 l 1,16,-1
 29 771 l 1,17,-1
 110 771 l 2,18,19
 191 771 191 771 319 772 c 128,-1,20
 447 773 447 773 532 773 c 1,21,-1
 532 610 l 1,22,23
 538 610 538 610 193 607 c 1,24,-1
 193 534 l 1,25,26
 285 523 285 523 372 487 c 0,27,28
 466 448 466 448 528 390 c 0,29,30
 609 314 609 314 609 223 c 0,31,32
 609 115 609 115 438 51 c 0,0,1
EndSplineSet
EndChar

StartChar: six
Encoding: 54 54 25
Width: 678
GlyphClass: 1
Flags: W
LayerCount: 2
Fore
SplineSet
241 461 m 1,0,1
 313 500 313 500 387 500 c 0,2,3
 619 500 619 500 619 243 c 0,4,5
 619 148 619 148 561 58 c 0,6,7
 482 -64 482 -64 340 -64 c 0,8,9
 256 -64 256 -64 183 -35 c 0,10,11
 125 -12 125 -12 84 57 c 0,12,13
 46 122 46 122 46 188 c 0,14,15
 46 196 46 196 42 211 c 128,-1,16
 38 226 38 226 38 234 c 256,17,18
 38 242 38 242 41 251 c 0,19,20
 48 320 48 320 55 389 c 0,21,22
 65 470 65 470 80 526 c 0,23,24
 112 646 112 646 176 700 c 0,25,26
 215 733 215 733 343 749 c 0,27,28
 436 761 436 761 532 761 c 2,29,-1
 621 761 l 1,30,-1
 621 595 l 1,31,-1
 532 595 l 2,32,33
 346 595 346 595 288 572 c 1,34,35
 261 541 261 541 241 461 c 1,0,1
382 333 m 1,36,37
 367 330 367 330 330 331 c 0,38,39
 297 332 297 332 279 327 c 1,40,41
 251 290 251 290 242 252 c 0,42,43
 235 224 235 224 235 171 c 0,44,45
 235 137 235 137 253 110 c 0,46,47
 274 80 274 80 307 80 c 0,48,49
 354 80 354 80 392 137 c 0,50,51
 427 189 427 189 427 238 c 0,52,53
 427 278 427 278 382 333 c 1,36,37
EndSplineSet
EndChar

StartChar: seven
Encoding: 55 55 26
Width: 545
GlyphClass: 1
Flags: W
LayerCount: 2
Fore
SplineSet
487 456 m 1,0,1
 454 401 454 401 443 311 c 0,2,3
 438 271 438 271 434 186 c 0,4,5
 431 105 431 105 425 62 c 0,6,7
 416 -5 416 -5 400 -5 c 0,8,9
 360 -6 360 -6 281 1 c 0,10,11
 213 7 213 7 187 7 c 1,12,-1
 228 302 l 1,13,-1
 283 537 l 1,14,15
 255 544 255 544 193 570 c 1,16,-1
 0 565 l 1,17,18
 7 584 7 584 10 605 c 0,19,20
 22 701 22 701 15 760 c 1,21,-1
 433 733 l 1,22,23
 447 728 447 728 470 728 c 0,24,25
 484 728 484 728 519 733 c 2,26,-1
 526 734 l 1,27,-1
 487 456 l 1,0,1
EndSplineSet
EndChar

StartChar: eight
Encoding: 56 56 27
Width: 678
GlyphClass: 1
Flags: W
LayerCount: 2
Fore
SplineSet
550 344 m 1,0,1
 586 296 586 296 601 217 c 0,2,3
 605 197 605 197 605 177 c 0,4,5
 605 117 605 117 571 59 c 0,6,7
 510 -45 510 -45 368 -45 c 0,8,9
 287 -45 287 -45 206 -20 c 0,10,11
 142 0 142 0 89 62 c 0,12,13
 33 128 33 128 33 192 c 0,14,15
 33 291 33 291 138 369 c 1,16,17
 54 449 54 449 54 528 c 0,18,19
 54 586 54 586 98 643 c 0,20,21
 136 693 136 693 193 725 c 0,22,23
 270 769 270 769 351 769 c 0,24,25
 582 769 582 769 622 553 c 0,26,27
 625 534 625 534 625 514 c 0,28,29
 625 409 625 409 550 344 c 1,0,1
371 623 m 1,30,31
 347 616 347 616 305 602 c 1,32,33
 244 519 244 519 248 493 c 0,34,35
 255 452 255 452 291 430 c 1,36,37
 304 432 304 432 330 432 c 0,38,39
 349 432 349 432 381 430 c 1,40,41
 403 444 403 444 417.5 473 c 128,-1,42
 432 502 432 502 432 529 c 0,43,44
 432 570 432 570 371 623 c 1,30,31
349 288 m 1,45,46
 335 282 335 282 284 266 c 1,47,48
 222 181 222 181 226 157 c 0,49,50
 232 125 232 125 258 102.5 c 128,-1,51
 284 80 284 80 316 80 c 0,52,53
 363 80 363 80 391 128 c 0,54,55
 411 163 411 163 411 191 c 0,56,57
 411 235 411 235 349 288 c 1,45,46
EndSplineSet
EndChar

StartChar: nine
Encoding: 57 57 28
Width: 678
GlyphClass: 1
Flags: W
LayerCount: 2
Fore
SplineSet
417 235 m 1,0,1
 347 197 347 197 272 197 c 0,2,3
 146 197 146 197 90 267 c 0,4,5
 40 329 40 329 40 454 c 0,6,7
 40 549 40 549 98 638 c 0,8,9
 178 761 178 761 318 761 c 0,10,11
 404 761 404 761 475 732 c 0,12,13
 534 708 534 708 573.5 641 c 128,-1,14
 613 574 613 574 613 509 c 0,15,16
 613 500 613 500 617 485.5 c 128,-1,17
 621 471 621 471 621 463 c 0,18,19
 621 454 621 454 618 446 c 0,20,21
 611 377 611 377 603 307 c 0,22,23
 593 228 593 228 578 171 c 0,24,25
 545 47 545 47 483 -4 c 0,26,27
 444 -36 444 -36 315 -52 c 0,28,29
 223 -64 223 -64 127 -64 c 2,30,-1
 38 -64 l 1,31,-1
 38 101 l 1,32,-1
 127 101 l 2,33,34
 224 101 224 101 255 103 c 0,35,36
 328 107 328 107 370 125 c 1,37,38
 402 161 402 161 417 235 c 1,0,1
276 364 m 1,39,40
 311 362 311 362 380 370 c 1,41,42
 407 407 407 407 417 445 c 0,43,44
 424 474 424 474 424 526 c 0,45,46
 424 560 424 560 406 587 c 0,47,48
 385 617 385 617 351 617 c 0,49,50
 305 617 305 617 266 560 c 0,51,52
 231 507 231 507 231 459 c 0,53,54
 231 419 231 419 276 364 c 1,39,40
EndSplineSet
EndChar

StartChar: colon
Encoding: 58 58 29
Width: 279
GlyphClass: 1
Flags: W
LayerCount: 2
Fore
SplineSet
130 -30 m 0,0,1
 90 -30 90 -30 63 -2.5 c 128,-1,2
 36 25 36 25 36 64 c 0,3,4
 36 101 36 101 67.5 127 c 128,-1,5
 99 153 99 153 136 153 c 0,6,7
 171 153 171 153 197.5 127.5 c 128,-1,8
 224 102 224 102 224 64 c 0,9,10
 224 25 224 25 196.5 -2.5 c 128,-1,11
 169 -30 169 -30 130 -30 c 0,0,1
130 357 m 0,12,13
 90 357 90 357 63 384.5 c 128,-1,14
 36 412 36 412 36 451 c 0,15,16
 36 488 36 488 67.5 514 c 128,-1,17
 99 540 99 540 136 540 c 0,18,19
 171 540 171 540 197.5 514.5 c 128,-1,20
 224 489 224 489 224 451 c 0,21,22
 224 412 224 412 196.5 384.5 c 128,-1,23
 169 357 169 357 130 357 c 0,12,13
EndSplineSet
EndChar

StartChar: semicolon
Encoding: 59 59 30
Width: 279
GlyphClass: 1
Flags: W
LayerCount: 2
Fore
SplineSet
72 24 m 1,0,1
 63 42 63 42 63 64 c 0,2,3
 63 101 63 101 94.5 127 c 128,-1,4
 126 153 126 153 163 153 c 0,5,6
 198 153 198 153 224.5 127.5 c 128,-1,7
 251 102 251 102 251 64 c 0,8,9
 251 40 251 40 240 20 c 1,10,11
 237 -51 237 -51 168 -82 c 0,12,13
 125 -101 125 -101 22 -112 c 1,14,-1
 9 8 l 1,15,-1
 30 15 l 2,16,17
 46 17 46 17 72 24 c 1,0,1
157 357 m 256,18,19
 118 357 118 357 90.5 384.5 c 128,-1,20
 63 412 63 412 63 451 c 0,21,22
 63 488 63 488 94.5 514 c 128,-1,23
 126 540 126 540 163 540 c 0,24,25
 198 540 198 540 224.5 514.5 c 128,-1,26
 251 489 251 489 251 451 c 0,27,28
 251 412 251 412 223.5 384.5 c 128,-1,29
 196 357 196 357 157 357 c 256,18,19
EndSplineSet
EndChar

StartChar: equal
Encoding: 61 61 31
Width: 414
GlyphClass: 1
Flags: W
LayerCount: 2
Fore
SplineSet
82 527 m 2,0,1
 250 527 250 527 383 510 c 1,2,-1
 368 390 l 1,3,4
 249 406 249 406 82 406 c 2,5,-1
 22 406 l 1,6,-1
 22 527 l 1,7,-1
 82 527 l 2,0,1
266 324 m 2,8,9
 282 322 282 322 310 322 c 2,10,-1
 370 322 l 1,11,-1
 370 201 l 1,12,-1
 310 201 l 2,13,14
 281 201 281 201 255 204 c 2,15,-1
 12 204 l 1,16,-1
 12 325 l 1,17,-1
 266 324 l 2,8,9
EndSplineSet
EndChar

StartChar: question
Encoding: 63 63 32
Width: 605
GlyphClass: 1
Flags: W
LayerCount: 2
Fore
SplineSet
35 496 m 2,0,1
 22 558 22 558 22 571 c 0,2,3
 22 704 22 704 116 758 c 0,4,5
 186 799 186 799 320 799 c 0,6,7
 428 799 428 799 505.5 720 c 128,-1,8
 583 641 583 641 583 533 c 0,9,10
 583 464 583 464 531 421 c 0,11,12
 515 409 515 409 431 365 c 0,13,14
 375 336 375 336 370 303 c 0,15,16
 367 284 367 284 349.5 239.5 c 128,-1,17
 332 195 332 195 330 174 c 1,18,-1
 185 188 l 1,19,20
 194 279 194 279 242 357 c 0,21,22
 297 445 297 445 379 468 c 0,23,24
 402 474 402 474 420 492.5 c 128,-1,25
 438 511 438 511 438 533 c 0,26,27
 438 581 438 581 402.5 617 c 128,-1,28
 367 653 367 653 320 653 c 0,29,30
 252 653 252 653 223 644 c 0,31,32
 167 626 167 626 167 571 c 1,33,34
 167 573 167 573 177 526 c 2,35,-1
 192 456 l 1,36,-1
 50 425 l 1,37,-1
 35 496 l 2,0,1
166 36 m 256,38,39
 166 71 166 71 190.5 96 c 128,-1,40
 215 121 215 121 250 121 c 256,41,42
 285 121 285 121 310 96 c 128,-1,43
 335 71 335 71 335 36 c 256,44,45
 335 1 335 1 310 -23.5 c 128,-1,46
 285 -48 285 -48 250 -48 c 256,47,48
 215 -48 215 -48 190.5 -23.5 c 128,-1,49
 166 1 166 1 166 36 c 256,38,39
EndSplineSet
EndChar

StartChar: at
Encoding: 64 64 33
Width: 708
GlyphClass: 1
Flags: W
LayerCount: 2
Fore
SplineSet
374 468 m 1,0,1
 353 501 353 501 309 497 c 1,2,3
 259 499 259 499 259 419 c 0,4,5
 259 408 259 408 261 380 c 1,6,7
 284 375 284 375 302 375 c 2,8,-1
 381 375 l 1,9,-1
 374 468 l 1,0,1
507 151 m 2,10,11
 510 144 510 144 512 141 c 0,12,13
 545 141 545 141 558 170 c 128,-1,14
 571 199 571 199 571 269 c 0,15,16
 571 362 571 362 549 449 c 0,17,18
 525 545 525 545 485 584 c 0,19,20
 427 640 427 640 249 640 c 0,21,22
 167 640 167 640 154.5 627 c 128,-1,23
 142 614 142 614 135 524 c 0,24,25
 117 304 117 304 117 243 c 0,26,27
 117 153 117 153 121 140 c 1,28,29
 131 130 131 130 154 130 c 0,30,31
 174 130 174 130 276 135 c 1,32,-1
 279 15 l 1,33,34
 266 15 266 15 217 13 c 0,35,36
 178 11 178 11 154 11 c 0,37,38
 56 11 56 11 26 81 c 0,39,40
 8 123 8 123 8 243 c 0,41,42
 8 361 8 361 18 476 c 0,43,44
 35 663 35 663 73 708 c 0,45,46
 102 742 102 742 155 753 c 0,47,48
 185 759 185 759 249 759 c 0,49,50
 468 759 468 759 557 674 c 0,51,52
 622 612 622 612 655 480 c 0,53,54
 680 378 680 378 680 269 c 0,55,56
 680 175 680 175 651 115 c 0,57,58
 608 24 608 24 506 24 c 0,59,60
 451 24 451 24 422 67 c 0,61,62
 402 97 402 97 388 164 c 1,63,64
 381 177 381 177 376 198 c 0,65,66
 369 230 369 230 360 263 c 0,67,68
 358 269 358 269 352.5 284.5 c 128,-1,69
 347 300 347 300 338 300 c 0,70,71
 332 300 332 300 319.5 296.5 c 128,-1,72
 307 293 307 293 301 293 c 0,73,74
 288 293 288 293 285 285 c 2,75,-1
 273 255 l 2,76,77
 260 223 260 223 260 184 c 0,78,79
 260 170 260 170 263 164 c 1,80,81
 251 168 251 168 228 168 c 0,82,83
 226 168 226 168 218 168 c 0,84,85
 210 167 210 167 204 167 c 2,86,-1
 180 167 l 2,87,88
 162 167 162 167 144 169 c 1,89,90
 144 552 144 552 157 568 c 0,91,92
 180 597 180 597 209 598 c 0,93,94
 280 601 280 601 351 586 c 0,95,96
 472 560 472 560 477 491 c 1,97,-1
 471 419 l 1,98,-1
 481 324 l 1,99,-1
 507 151 l 2,10,11
EndSplineSet
EndChar

StartChar: A
Encoding: 65 65 34
Width: 543
GlyphClass: 1
Flags: W
LayerCount: 2
Fore
SplineSet
519 -34 m 1,0,1
 460 -26 460 -26 429 -26 c 0,2,3
 389 -26 389 -26 367 -36 c 1,4,5
 339 -13 339 -13 327 54 c 0,6,7
 308 161 308 161 305 164 c 0,8,9
 303 174 303 174 294.5 200 c 128,-1,10
 286 226 286 226 274 226 c 0,11,12
 266 226 266 226 248.5 220 c 128,-1,13
 231 214 231 214 223 214 c 0,14,15
 206 214 206 214 201 200 c 2,16,-1
 184 151 l 2,17,18
 166 99 166 99 166 31 c 0,19,20
 166 5 166 5 170 -3 c 1,21,22
 151 3 151 3 121 3 c 0,23,24
 117 3 117 3 88 2 c 128,-1,25
 59 1 59 1 55 1 c 0,26,27
 27 1 27 1 4 6 c 1,28,29
 4 649 4 649 23 678 c 0,30,31
 56 727 56 727 95 729 c 0,32,33
 198 733 198 733 293 709 c 0,34,35
 461 666 461 666 467 549 c 1,36,-1
 459 427 l 1,37,-1
 473 266 l 1,38,-1
 519 -34 l 1,0,1
324 509 m 1,39,40
 296 565 296 565 235 559 c 1,41,42
 164 561 164 561 164 427 c 0,43,44
 164 409 164 409 168 361 c 1,45,46
 197 353 197 353 225 353 c 2,47,-1
 334 353 l 1,48,-1
 324 509 l 1,39,40
EndSplineSet
EndChar

StartChar: B
Encoding: 66 66 35
Width: 587
GlyphClass: 1
Flags: W
LayerCount: 2
Fore
SplineSet
363 527 m 1,0,1
 343 573 343 573 295 591 c 0,2,3
 278 597 278 597 198 611 c 1,4,-1
 196 424 l 1,5,6
 207 417 207 417 233 417 c 1,7,8
 232 417 232 417 232 417 c 129,-1,9
 232 417 232 417 233 417 c 2,10,11
 233 417 233 417 236 418 c 2,12,-1
 277 418 l 2,13,14
 303 418 303 418 311 411 c 1,15,-1
 363 527 l 1,0,1
368 193 m 1,16,17
 348 241 348 241 301 258 c 0,18,19
 288 263 288 263 204 277 c 1,20,-1
 203 90 l 1,21,22
 211 83 211 83 239 83 c 1,23,24
 238 83 238 83 242 84 c 2,25,-1
 284 84 l 2,26,27
 310 84 310 84 316 76 c 1,28,-1
 368 193 l 1,16,17
512 48 m 0,29,30
 507 30 507 30 493 8 c 0,31,32
 474 -20 474 -20 452 -25 c 1,33,34
 452 -31 452 -31 427 -31 c 0,35,36
 407 -31 407 -31 367 -28 c 128,-1,37
 327 -25 327 -25 307 -25 c 0,38,39
 279 -25 279 -25 271 -30 c 1,40,-1
 34 5 l 1,41,-1
 21 747 l 1,42,43
 32 744 32 744 63 747 c 0,44,45
 87 749 87 749 138 751 c 0,46,47
 168 752 168 752 246 735 c 0,48,49
 512 677 512 677 515 530 c 1,50,-1
 504 409 l 1,51,-1
 424 329 l 1,52,53
 546 316 546 316 546 183 c 0,54,55
 546 120 546 120 512 48 c 0,29,30
EndSplineSet
EndChar

StartChar: C
Encoding: 67 67 36
Width: 558
GlyphClass: 1
Flags: W
LayerCount: 2
Fore
SplineSet
-15 439 m 1,0,1
 -2 597 -2 597 190 670 c 0,2,3
 321 720 321 720 520 726 c 1,4,5
 532 659 532 659 554 532 c 1,6,7
 459 529 459 529 347 492 c 0,8,9
 209 446 209 446 198 339 c 1,10,11
 213 268 213 268 350 205 c 0,12,13
 529 123 529 123 523 87 c 0,14,15
 518 58 518 58 547 -50 c 1,16,17
 546 -49 546 -49 499 -50 c 0,18,19
 286 -52 286 -52 141 63 c 0,20,21
 -15 188 -15 188 -15 395 c 0,22,23
 -15 439 -15 439 -15 439 c 1,0,1
EndSplineSet
EndChar

StartChar: D
Encoding: 68 68 37
Width: 638
GlyphClass: 1
Flags: W
LayerCount: 2
Fore
SplineSet
625 311 m 0,0,1
 625 151 625 151 427 54 c 0,2,3
 296 -10 296 -10 88 -41 c 1,4,5
 57 72 57 72 50 237 c 0,6,7
 48 310 48 310 41 520 c 0,8,9
 35 671 35 671 -7 780 c 1,10,11
 2 780 2 780 21 784.5 c 128,-1,12
 40 789 40 789 48 789 c 0,13,14
 183 789 183 789 314.5 726.5 c 128,-1,15
 446 664 446 664 531 560 c 0,16,17
 625 445 625 445 625 311 c 0,0,1
394 399 m 0,18,19
 394 440 394 440 330.5 500.5 c 128,-1,20
 267 561 267 561 227 555 c 1,21,22
 227 440 227 440 218 380 c 1,23,24
 224 347 224 347 224 302 c 0,25,26
 224 284 224 284 220 232 c 0,27,28
 217 188 217 188 219 163 c 1,29,30
 296 161 296 161 348 244 c 0,31,32
 394 317 394 317 394 399 c 0,18,19
EndSplineSet
EndChar

StartChar: E
Encoding: 69 69 38
Width: 482
GlyphClass: 1
Flags: W
LayerCount: 2
Fore
SplineSet
442 645 m 1,0,1
 423 636 423 636 349 633 c 0,2,3
 289 630 289 630 256 610 c 1,4,-1
 256 464 l 1,5,-1
 268 453 l 1,6,7
 278 461 278 461 303 461 c 0,8,9
 310 461 310 461 363 455 c 0,10,11
 405 450 405 450 424 449 c 1,12,13
 424 421 424 421 414 367 c 128,-1,14
 404 313 404 313 404 286 c 1,15,-1
 271 286 l 1,16,17
 262 263 262 263 255 224 c 0,18,19
 245 169 245 169 237 146 c 1,20,21
 288 128 288 128 357 128 c 0,22,23
 388 128 388 128 405 130 c 1,24,-1
 413 -28 l 1,25,-1
 43 -35 l 1,26,-1
 43 783 l 1,27,28
 224 773 224 773 321 773 c 0,29,30
 412 773 412 773 442 785 c 1,31,-1
 442 645 l 1,0,1
EndSplineSet
EndChar

StartChar: F
Encoding: 70 70 39
Width: 479
GlyphClass: 1
Flags: W
LayerCount: 2
Fore
SplineSet
1 -59 m 1,0,-1
 1 759 l 1,1,2
 105 753 105 753 210 753 c 0,3,4
 398 753 398 753 421 760 c 1,5,-1
 458 620 l 1,6,7
 439 612 439 612 336 609 c 0,8,9
 247 606 247 606 213 586 c 1,10,-1
 213 439 l 1,11,-1
 226 428 l 1,12,13
 236 436 236 436 261 436 c 0,14,15
 284 436 284 436 322 431 c 0,16,17
 367 425 367 425 382 424 c 1,18,19
 382 408 382 408 369 338 c 0,20,21
 362 302 362 302 362 275 c 1,22,-1
 209 259 l 1,23,24
 201 239 201 239 204 168 c 2,25,-1
 210 36 l 2,26,27
 212 -7 212 -7 203 -31 c 1,28,-1
 1 -59 l 1,0,-1
EndSplineSet
EndChar

StartChar: G
Encoding: 71 71 40
Width: 653
GlyphClass: 1
Flags: W
LayerCount: 2
Fore
SplineSet
224 670 m 0,0,1
 354 720 354 720 555 726 c 1,2,3
 574 623 574 623 588 532 c 1,4,5
 493 529 493 529 382 492 c 0,6,7
 245 446 245 446 233 339 c 1,8,9
 246 284 246 284 298 226 c 128,-1,10
 350 168 350 168 403 143 c 0,11,12
 418 138 418 138 421 138 c 0,13,14
 441 138 441 138 445 168 c 0,15,16
 448 191 448 191 448 230 c 0,17,18
 448 234 448 234 416 238 c 128,-1,19
 384 242 384 242 384 245 c 0,20,21
 384 285 384 285 385 292 c 0,22,23
 388 313 388 313 403 313 c 0,24,25
 427 313 427 313 508 318 c 2,26,-1
 589 323 l 2,27,28
 615 325 615 325 615 233 c 0,29,30
 615 205 615 205 609 117 c 0,31,32
 605 58 605 58 605 0 c 0,33,34
 605 -35 605 -35 608 -50 c 1,35,36
 608 -50 608 -50 560 -50 c 0,37,38
 445 -51 445 -51 343 -20 c 0,39,40
 194 25 194 25 109 131 c 0,41,42
 19 241 19 241 19 395 c 0,43,44
 19 501 19 501 71 568 c 0,45,46
 119 629 119 629 224 670 c 0,0,1
EndSplineSet
EndChar

StartChar: H
Encoding: 72 72 41
Width: 641
GlyphClass: 1
Flags: W
LayerCount: 2
Fore
SplineSet
209 424 m 1,0,-1
 420 436 l 1,1,2
 426 541 426 541 426 611 c 0,3,4
 426 653 426 653 425 670 c 2,5,-1
 417 697 l 1,6,7
 439 695 439 695 506 688 c 0,8,9
 524 686 524 686 579 680 c 0,10,11
 602 677 602 677 647 671 c 1,12,13
 645 671 645 671 638 669 c 1,14,-1
 646 536 l 2,15,16
 647 512 647 512 639 508 c 128,-1,17
 631 504 631 504 627 500 c 1,18,19
 630 480 630 480 632 449 c 0,20,21
 636 375 636 375 622 208 c 2,22,-1
 600 -47 l 1,23,24
 444 -31 444 -31 400 -35 c 1,25,26
 399 -18 399 -18 399 21 c 0,27,28
 399 92 399 92 407 231 c 1,29,-1
 201 221 l 1,30,31
 201 221 201 221 198 185 c 2,32,-1
 177 -70 l 1,33,34
 25 -53 25 -53 -24 -56 c 1,35,36
 -25 -41 -25 -41 -25 -2 c 0,37,38
 -25 115 -25 115 -12 294 c 0,39,40
 3 501 3 501 3 589 c 0,41,42
 3 613 3 613 1 647 c 1,43,-1
 -6 675 l 1,44,45
 93 668 93 668 223 649 c 1,46,47
 222 647 222 647 215 647 c 1,48,-1
 221 515 l 2,49,50
 222 490 222 490 217 487 c 0,51,52
 205 481 205 481 204 477 c 0,53,54
 209 435 209 435 209 427 c 2,55,-1
 209 424 l 1,0,-1
EndSplineSet
EndChar

StartChar: I
Encoding: 73 73 42
Width: 332
GlyphClass: 1
Flags: W
LayerCount: 2
Fore
SplineSet
289 533 m 2,0,1
 289 508 289 508 283 505 c 0,2,3
 271 501 271 501 269 497 c 0,4,5
 271 481 271 481 271 446 c 0,6,7
 271 364 271 364 249 205 c 2,8,-1
 214 -48 l 1,9,10
 63 -24 63 -24 15 -25 c 1,11,12
 15 93 15 93 45.5 326.5 c 128,-1,13
 76 560 76 560 76 678 c 1,14,-1
 70 705 l 1,15,16
 84 702 84 702 158 692 c 0,17,18
 186 688 186 688 230 680 c 2,19,-1
 298 667 l 1,20,21
 296 666 296 666 289 666 c 1,22,-1
 289 533 l 2,0,1
EndSplineSet
EndChar

StartChar: J
Encoding: 74 74 43
Width: 470
GlyphClass: 1
Flags: W
LayerCount: 2
Fore
SplineSet
444 262 m 1,0,-1
 417 80 l 2,1,2
 409 25 409 25 371 2 c 0,3,4
 349 -11 349 -11 279 -25 c 0,5,6
 264 -28 264 -28 253 -28 c 0,7,8
 174 -28 174 -28 7 42 c 1,9,10
 11 57 11 57 45 117 c 1,11,12
 55 146 55 146 73 186 c 0,13,14
 75 198 75 198 75 201 c 0,15,16
 75 208 75 208 71 218 c 1,17,18
 181 131 181 131 210 128 c 0,19,20
 214 127 214 127 225 127 c 0,21,22
 244 127 244 127 256 138 c 0,23,24
 262 143 262 143 275 168 c 1,25,-1
 256 401 l 1,26,-1
 243 678 l 1,27,28
 277 676 277 676 329 687 c 0,29,30
 391 699 391 699 408 699 c 0,31,32
 441 698 441 698 441 617 c 0,33,34
 441 581 441 581 433 499 c 0,35,36
 426 422 426 422 427 380 c 0,37,38
 429 323 429 323 444 262 c 1,0,-1
EndSplineSet
EndChar

StartChar: K
Encoding: 75 75 44
Width: 636
GlyphClass: 1
Flags: W
LayerCount: 2
Fore
SplineSet
264 556 m 1,0,1
 290 577 290 577 320 599 c 1,2,-1
 505 703 l 1,3,-1
 575 543 l 1,4,-1
 330 382 l 1,5,6
 321 370 321 370 297 346 c 1,7,-1
 367 294 l 2,8,9
 380 284 380 284 375.5 281.5 c 128,-1,10
 371 279 371 279 395 262 c 0,11,12
 424 241 424 241 440 210 c 0,13,14
 469 156 469 156 473 151 c 0,15,16
 511 97 511 97 553 48 c 0,17,18
 566 34 566 34 597 -5 c 1,19,20
 566 -10 566 -10 485 -8 c 0,21,22
 411 -7 411 -7 389 -13 c 1,23,24
 371 7 371 7 318 79 c 2,25,-1
 233 195 l 1,26,27
 233 193 233 193 221 -16 c 1,28,29
 70 -1 70 -1 20 -5 c 1,30,31
 19 11 19 11 19 48 c 0,32,33
 19 148 19 148 32.5 347.5 c 128,-1,34
 46 547 46 547 46 647 c 0,35,36
 46 692 46 692 45 709 c 2,37,-1
 38 735 l 1,38,39
 115 728 115 728 267 710 c 1,40,41
 266 709 266 709 259 709 c 1,42,-1
 264 556 l 1,0,1
EndSplineSet
EndChar

StartChar: L
Encoding: 76 76 45
Width: 470
GlyphClass: 1
Flags: W
LayerCount: 2
Fore
SplineSet
427 148 m 1,0,1
 415 127 415 127 415 86 c 0,2,3
 415 47 415 47 431 -29 c 1,4,-1
 102 -3 l 1,5,6
 94 2 94 2 80 2 c 0,7,8
 79 2 79 2 41 -5 c 0,9,10
 29 -7 29 -7 20 -7 c 1,11,-1
 22 275 l 1,12,13
 39 318 39 318 39 397 c 0,14,15
 39 446 39 446 34 507 c 0,16,17
 30 556 30 556 30 618 c 0,18,19
 30 701 30 701 61 703 c 0,20,21
 89 704 89 704 149 698 c 0,22,23
 215 691 215 691 235 692 c 1,24,-1
 233 404 l 1,25,-1
 215 173 l 1,26,27
 237 164 237 164 266 144 c 1,28,-1
 427 148 l 1,0,1
EndSplineSet
EndChar

StartChar: M
Encoding: 77 77 46
Width: 903
GlyphClass: 1
Flags: W
LayerCount: 2
Fore
SplineSet
895 -16 m 0,0,1
 894 -47 894 -47 842 -64 c 0,2,3
 803 -77 803 -77 762 -75 c 0,4,5
 736 -74 736 -74 696 96 c 2,6,-1
 630 376 l 1,7,8
 604 306 604 306 588 197 c 0,9,10
 567 53 567 53 561 31 c 1,11,12
 525 33 525 33 507 33 c 0,13,14
 437 33 437 33 365 22 c 1,15,-1
 326 211 l 2,16,17
 303 318 303 318 271 394 c 1,18,19
 246 281 246 281 236 153 c 2,20,-1
 219 -71 l 1,21,-1
 207 -81 l 2,22,23
 201 -86 201 -86 190 -86 c 1,24,25
 190 -82 190 -82 188 -80 c 0,26,27
 155 -98 155 -98 132 -97 c 0,28,29
 19 -93 19 -93 -11 -106 c 1,30,-1
 -8 -26 l 2,31,32
 -7 -2 -7 -2 -1 7 c 0,33,34
 1 10 1 10 24 32 c 1,35,36
 46 303 46 303 97 523 c 0,37,38
 99 532 99 532 99 548 c 0,39,40
 99 561 99 561 97 587.5 c 128,-1,41
 95 614 95 614 95 627 c 0,42,43
 95 663 95 663 106 688 c 1,44,45
 289 683 289 683 346 662 c 1,46,47
 354 613 354 613 358 590 c 0,48,49
 399 377 399 377 423 313 c 1,50,51
 460 437 460 437 477 532 c 2,52,-1
 512 730 l 1,53,-1
 707 719 l 1,54,55
 766 544 766 544 832 278 c 0,56,57
 897 18 897 18 895 -16 c 0,0,1
EndSplineSet
EndChar

StartChar: N
Encoding: 78 78 47
Width: 773
GlyphClass: 1
Flags: WO
LayerCount: 2
Fore
SplineSet
561 558 m 0,0,1
 604 563 604 563 677.5 594.5 c 128,-1,2
 751 626 751 626 762 630 c 1,3,4
 761 621 761 621 772 609.5 c 128,-1,5
 783 598 783 598 780 588 c 0,6,7
 734 526 734 526 621 462 c 0,8,9
 612 457 612 457 588.5 442 c 128,-1,10
 565 427 565 427 552 420 c 1024,11,-1
492 84 m 0,12,13
 495 89 495 89 505 107.5 c 128,-1,14
 515 126 515 126 525 135 c 128,-1,15
 535 144 535 144 549 144 c 1,16,17
 563 110 563 110 552 84 c 1,18,-1
 543 78 l 1025,19,-1
594 246 m 0,20,21
 578 250 578 250 562 263 c 128,-1,22
 546 276 546 276 530 294 c 128,-1,23
 514 312 514 312 507 318 c 1,24,25
 518 314 518 314 523 304 c 128,-1,26
 528 294 528 294 530 278.5 c 128,-1,27
 532 263 532 263 534 258 c 2,28,-1
 537 225 l 1025,29,-1
585 486 m 1,30,-1
 663 486 l 1,31,-1
 579 417 l 1,32,-1
 567 414 l 1025,33,-1
576 645 m 0,34,35
 616 708 616 708 621 732 c 1,36,37
 625 712 625 712 624 690 c 0,38,39
 626 681 626 681 621.5 656.5 c 128,-1,40
 617 632 617 632 621 624 c 1024,41,-1
525 755 m 1,42,-1
 720 754 l 1,43,-1
 667 387 l 2,44,45
 665 379 665 379 662 376 c 0,46,47
 644 309 644 309 634 188 c 0,48,49
 623 54 623 54 614 -2 c 1,50,51
 515 -2 515 -2 420 -22 c 1,52,53
 345 258 345 258 286 466 c 1,54,55
 261 295 261 295 255 -8 c 1,56,57
 246 -24 246 -24 227 -25 c 0,58,59
 226 -23 226 -23 223 -23 c 0,60,61
 219 -23 219 -23 197 -31 c 0,62,63
 179 -39 179 -39 170 -41 c 2,64,-1
 101 -43 l 2,65,66
 62 -45 62 -45 36 -58 c 1,67,68
 36 -55 36 -55 34 -25 c 0,69,70
 33 -10 33 -10 33 7 c 0,71,72
 33 65 33 65 63 93 c 1,73,74
 65 176 65 176 93 337 c 128,-1,75
 121 498 121 498 121 583 c 0,76,77
 121 615 121 615 119 633 c 0,78,79
 111 706 111 706 121 742 c 1,80,81
 308 745 308 745 364 726 c 1,82,83
 398 463 398 463 459 297 c 1,84,85
 485 414 485 414 498 525 c 2,86,-1
 525 755 l 1,42,-1
EndSplineSet
EndChar

StartChar: O
Encoding: 79 79 48
Width: 678
GlyphClass: 1
Flags: W
LayerCount: 2
Fore
SplineSet
645 416 m 0,0,1
 645 284 645 284 580 155 c 0,2,3
 494 -16 494 -16 338 -16 c 0,4,5
 243 -16 243 -16 162 25 c 0,6,7
 96 59 96 59 52 160 c 0,8,9
 13 251 13 251 13 335 c 0,10,11
 13 435 13 435 71 540 c 0,12,13
 125 639 125 639 209 705 c 0,14,15
 301 777 301 777 393 777 c 0,16,17
 549 777 549 777 608 647 c 0,18,19
 645 565 645 565 645 416 c 0,0,1
454 409 m 0,20,21
 454 480 454 480 394 571 c 1,22,23
 373 560 373 560 299 527 c 1,24,25
 201 364 201 364 201 311 c 0,26,27
 201 256 201 256 223 212 c 0,28,29
 251 157 251 157 301 157 c 0,30,31
 364 157 364 157 412 252 c 0,32,33
 454 335 454 335 454 409 c 0,20,21
EndSplineSet
EndChar

StartChar: P
Encoding: 80 80 49
Width: 543
GlyphClass: 1
Flags: W
LayerCount: 2
Fore
SplineSet
235 206 m 0,0,1
 201 206 201 206 186 138 c 0,2,3
 176 92 176 92 176 45 c 0,4,5
 176 4 176 4 182 -13 c 1,6,7
 155 -4 155 -4 98.5 -3.5 c 128,-1,8
 42 -3 42 -3 16 6 c 1,9,-1
 16 749 l 1,10,11
 26 746 26 746 59 748 c 0,12,13
 96 750 96 750 134 750 c 0,14,15
 176 750 176 750 247 733 c 0,16,17
 507 671 507 671 507 524 c 1,18,-1
 493 403 l 1,19,20
 450 299 450 299 398 256 c 0,21,22
 339 206 339 206 235 206 c 0,0,1
337 476 m 1,23,24
 316 526 316 526 280 545 c 0,25,26
 258 556 258 556 195 567 c 1,27,-1
 195 353 l 1,28,29
 204 347 204 347 240 343 c 0,30,31
 273 339 273 339 278 331 c 1,32,-1
 337 476 l 1,23,24
EndSplineSet
EndChar

StartChar: Q
Encoding: 81 81 50
Width: 678
GlyphClass: 1
Flags: W
LayerCount: 2
Fore
SplineSet
454 409 m 0,0,1
 454 480 454 480 394 571 c 1,2,3
 373 560 373 560 299 527 c 1,4,5
 201 364 201 364 201 311 c 0,6,7
 201 257 201 257 223 213 c 0,8,9
 236 188 236 188 273 169 c 0,10,11
 307 152 307 152 338 152 c 0,12,13
 340 153 340 153 340 155 c 0,14,15
 340 164 340 164 331.5 184 c 128,-1,16
 323 204 323 204 323 211 c 0,17,18
 323 214 323 214 324 215 c 0,19,20
 335 219 335 219 339 223 c 0,21,22
 345 231 345 231 370 252 c 0,23,24
 383 268 383 268 414 217 c 0,25,26
 415 217 415 217 415 218 c 0,27,28
 454 293 454 293 454 409 c 0,0,1
399 -36 m 0,29,30
 397 -28 397 -28 394 -11 c 1,31,32
 370 -16 370 -16 338 -16 c 0,33,34
 243 -16 243 -16 162 25 c 0,35,36
 96 59 96 59 52 160 c 0,37,38
 13 251 13 251 13 335 c 0,39,40
 13 435 13 435 71 540 c 0,41,42
 125 639 125 639 209 705 c 0,43,44
 301 777 301 777 393 777 c 0,45,46
 549 777 549 777 608 647 c 0,47,48
 645 565 645 565 645 416 c 0,49,50
 645 283 645 283 580 155 c 0,51,52
 548 93 548 93 515 58 c 1,53,54
 559 -14 559 -14 599 -107 c 1,55,56
 569 -105 569 -105 522 -116 c 128,-1,57
 475 -127 475 -127 447 -138 c 1,58,59
 418 -115 418 -115 399 -36 c 0,29,30
EndSplineSet
EndChar

StartChar: R
Encoding: 82 82 51
Width: 543
GlyphClass: 1
Flags: W
LayerCount: 2
Fore
SplineSet
524 -60 m 1,0,1
 496 -59 496 -59 447 -69 c 128,-1,2
 398 -79 398 -79 372 -92 c 1,3,4
 344 -69 344 -69 323 12 c 2,5,-1
 288 142 l 1,6,7
 263 206 263 206 219 206 c 0,8,9
 185 206 185 206 169 138 c 0,10,11
 160 99 160 99 160 45 c 0,12,13
 160 4 160 4 166 -13 c 1,14,15
 138 -4 138 -4 82 -3 c 0,16,17
 23 -2 23 -2 0 6 c 1,18,-1
 0 749 l 1,19,20
 10 746 10 746 43 748 c 0,21,22
 80 750 80 750 117 750 c 0,23,24
 159 750 159 750 230 733 c 0,25,26
 491 671 491 671 491 524 c 1,27,-1
 476 403 l 1,28,-1
 389 239 l 1,29,-1
 524 -60 l 1,0,1
320 476 m 1,30,31
 301 525 301 525 263 545 c 0,32,33
 241 557 241 557 178 567 c 1,34,-1
 178 353 l 1,35,36
 189 346 189 346 223 343 c 128,-1,37
 257 340 257 340 261 331 c 1,38,-1
 320 476 l 1,30,31
EndSplineSet
EndChar

StartChar: S
Encoding: 83 83 52
Width: 568
GlyphClass: 1
Flags: W
LayerCount: 2
Fore
SplineSet
541 464 m 1,0,1
 512 464 512 464 455.5 473.5 c 128,-1,2
 399 483 399 483 371 483 c 1,3,4
 378 503 378 503 378 522 c 0,5,6
 378 560 378 560 353.5 589 c 128,-1,7
 329 618 329 618 291 618 c 0,8,9
 243 618 243 618 213 556 c 1,10,11
 218 499 218 499 334 425 c 2,12,-1
 500 319 l 1,13,14
 525 238 525 238 525 210 c 0,15,16
 525 139 525 139 447.5 57.5 c 128,-1,17
 370 -24 370 -24 299 -24 c 0,18,19
 202 -24 202 -24 110 37 c 0,20,21
 8 104 8 104 8 196 c 2,22,-1
 8 270 l 1,23,-1
 39 275 l 1,24,25
 39 275 39 275 55 285 c 0,26,27
 64 288 64 288 75 288 c 0,28,29
 89 288 89 288 95 281 c 1,30,-1
 95 279 l 1,31,32
 103 271 103 271 124 270 c 2,33,34
 124 270 124 270 157 270 c 1,35,36
 172 225 172 225 186 189 c 0,37,38
 204 144 204 144 227 114 c 1,39,-1
 270 114 l 1,40,41
 318 192 318 192 318 227 c 1,42,43
 277 261 277 261 197 311 c 0,44,45
 110 365 110 365 76 400 c 0,46,47
 23 455 23 455 23 523 c 0,48,49
 23 592 23 592 83 679 c 128,-1,50
 143 766 143 766 207 784 c 0,51,52
 232 791 232 791 351 791 c 0,53,54
 395 791 395 791 468 713 c 128,-1,55
 541 635 541 635 541 594 c 2,56,-1
 541 464 l 1,0,1
EndSplineSet
EndChar

StartChar: T
Encoding: 84 84 53
Width: 559
GlyphClass: 1
Flags: W
LayerCount: 2
Fore
SplineSet
559 535 m 1,0,-1
 433 535 l 1,1,2
 415 528 415 528 382 506 c 1,3,-1
 400 276 l 1,4,-1
 402 -13 l 1,5,6
 372 -11 372 -11 315 -17 c 0,7,8
 255 -23 255 -23 228 -22 c 0,9,10
 193 -21 193 -21 193 172 c 0,11,12
 193 246 193 246 197 323 c 128,-1,13
 201 400 201 400 201 474 c 0,14,15
 201 500 201 500 158 508 c 0,16,17
 155 508 155 508 126 511 c 2,18,-1
 74 515 l 2,19,20
 25 519 25 519 19 533 c 2,21,-1
 -19 698 l 1,22,-1
 106 687 l 2,23,24
 188 681 188 681 237 681 c 0,25,26
 263 681 263 681 269 683 c 2,27,-1
 559 706 l 1,28,29
 547 652 547 652 547 600 c 0,30,31
 547 556 547 556 559 535 c 1,0,-1
EndSplineSet
EndChar

StartChar: U
Encoding: 85 85 54
Width: 533
GlyphClass: 1
Flags: W
LayerCount: 2
Fore
SplineSet
518 262 m 1,0,-1
 489 80 l 2,1,2
 481 27 481 27 451 7 c 0,3,4
 428 -9 428 -9 344 -25 c 0,5,6
 313 -31 313 -31 286 -31 c 0,7,8
 196 -31 196 -31 138 14.5 c 128,-1,9
 80 60 80 60 70 150 c 1,10,-1
 55 213 l 2,11,12
 43 262 43 262 24 349 c 0,13,14
 22 362 22 362 22 375 c 0,15,16
 22 390 22 390 24 417 c 0,17,18
 26 442 26 442 23 459 c 2,19,-1
 -4 623 l 2,20,21
 -4 634 -4 634 -1 638 c 0,22,23
 5 657 5 657 42 655 c 0,24,25
 59 654 59 654 66 654 c 0,26,27
 78 654 78 654 79.5 656.5 c 128,-1,28
 81 659 81 659 107.5 677 c 128,-1,29
 134 695 134 695 133 696 c 1,30,31
 165 659 165 659 195 514 c 0,32,33
 205 467 205 467 208 405 c 0,34,35
 210 361 210 361 216 297 c 1,36,37
 227 233 227 233 246 177 c 0,38,39
 253 160 253 160 260.5 143.5 c 128,-1,40
 268 127 268 127 287 127 c 256,41,42
 306 127 306 127 319 137 c 0,43,44
 325 143 325 143 340 168 c 1,45,-1
 320 401 l 1,46,-1
 306 678 l 1,47,48
 340 676 340 676 395 687 c 0,49,50
 459 700 459 700 480 699 c 0,51,52
 515 698 515 698 515 617 c 0,53,54
 515 592 515 592 507 499 c 128,-1,55
 499 406 499 406 500 380 c 0,56,57
 502 327 502 327 518 262 c 1,0,-1
EndSplineSet
EndChar

StartChar: V
Encoding: 86 86 55
Width: 585
GlyphClass: 1
Flags: W
LayerCount: 2
Fore
SplineSet
6 545 m 2,0,-1
 -44 656 l 1,1,2
 -50 653 -50 653 -52 655 c 0,3,4
 -52 658 -52 658 -24 670 c 0,5,6
 -12 675 -12 675 22 677 c 128,-1,7
 56 679 56 679 76 687 c 2,8,-1
 160 720 l 1,9,-1
 161 692 l 1,10,-1
 185 585 l 2,11,12
 206 492 206 492 241 394 c 2,13,-1
 295 241 l 1,14,15
 367 386 367 386 393 522 c 0,16,17
 406 591 406 591 422 700 c 1,18,-1
 423 729 l 1,19,20
 446 720 446 720 506 695 c 0,21,22
 520 689 520 689 549.5 685.5 c 128,-1,23
 579 682 579 682 590 678 c 0,24,25
 613 669 613 669 618 663 c 0,26,27
 617 662 617 662 609 664 c 1,28,-1
 586 561 l 2,29,30
 581 538 581 538 573.5 537 c 128,-1,31
 566 536 566 536 566 504 c 0,32,33
 563 487 563 487 557 455 c 0,34,35
 543 398 543 398 476 227 c 0,36,37
 432 115 432 115 380 -12 c 1,38,-1
 303 -62 l 1,39,-1
 202 -18 l 1,40,41
 178 41 178 41 106 219 c 0,42,43
 69 312 69 312 54 355 c 0,44,45
 26 439 26 439 16 497 c 0,46,47
 16 499 16 499 19 507 c 128,-1,48
 22 515 22 515 22 516 c 0,49,50
 16 526 16 526 6 545 c 2,0,-1
EndSplineSet
EndChar

StartChar: W
Encoding: 87 87 56
Width: 903
GlyphClass: 1
Flags: W
LayerCount: 2
Fore
SplineSet
895 641 m 0,0,1
 897 607 897 607 832 347 c 0,2,3
 766 82 766 82 707 -96 c 1,4,-1
 512 -106 l 1,5,-1
 477 92 l 2,6,7
 460 187 460 187 423 311 c 1,8,9
 398 243 398 243 358 35 c 0,10,11
 354 16 354 16 346 -38 c 1,12,13
 281 -61 281 -61 106 -65 c 1,14,15
 95 -38 95 -38 95 -4 c 0,16,17
 95 9 95 9 97 36 c 128,-1,18
 99 63 99 63 99 76 c 0,19,20
 99 93 99 93 97 102 c 0,21,22
 46 320 46 320 24 592 c 1,23,24
 4 609 4 609 -1.5 617.5 c 128,-1,25
 -7 626 -7 626 -8 651 c 2,26,-1
 -11 730 l 1,27,28
 23 715 23 715 132 720 c 0,29,30
 153 721 153 721 188 705 c 0,31,32
 190 706 190 706 190 710 c 0,33,34
 200 711 200 711 207 706 c 2,35,-1
 219 695 l 1,36,-1
 236 471 l 2,37,38
 246 344 246 344 271 229 c 1,39,40
 304 310 304 310 326 412 c 0,41,42
 335 452 335 452 359 570 c 2,43,-1
 365 602 l 1,44,45
 437 591 437 591 507 591 c 0,46,47
 525 591 525 591 561 593 c 1,48,49
 568 565 568 565 588 428 c 0,50,51
 605 314 605 314 630 249 c 1,52,53
 633 258 633 258 696 529 c 0,54,55
 735 696 735 696 762 698 c 0,56,57
 799 700 799 700 842 687 c 0,58,59
 894 671 894 671 895 641 c 0,0,1
EndSplineSet
EndChar

StartChar: X
Encoding: 88 88 57
Width: 585
GlyphClass: 1
Flags: W
LayerCount: 2
Fore
SplineSet
535 77 m 1,0,-1
 565 19 l 2,1,2
 568 18 568 18 571 16.5 c 128,-1,3
 574 15 574 15 573 6 c 2,4,-1
 568 -8 l 2,5,6
 565 -25 565 -25 543 -25 c 0,7,8
 532 -25 532 -25 508.5 -20 c 128,-1,9
 485 -15 485 -15 472 -16 c 0,10,11
 445 -18 445 -18 389 -22 c 1,12,-1
 373 31 l 2,13,14
 369 44 369 44 359 77 c 0,15,16
 346 113 346 113 299 178 c 2,17,-1
 291 189 l 1,18,-1
 256 131 l 1,19,-1
 189 -13 l 1,20,-1
 187 -40 l 1,21,22
 147 -31 147 -31 55 -15 c 0,23,24
 48 -14 48 -14 33 -15 c 0,25,26
 22 -16 22 -16 11 -16 c 0,27,28
 -5 -16 -5 -16 -8 -5 c 0,29,30
 -12 11 -12 11 -6 22 c 2,31,-1
 41 80 l 1,32,-1
 41 90 l 1,33,-1
 186 321 l 1,34,35
 99 436 99 436 41 560 c 1,36,-1
 41 568 l 1,37,-1
 40 570 l 1,38,-1
 -4 626 l 1,39,40
 -9 642 -9 642 -8 653 c 0,41,42
 -8 676 -8 676 18 676 c 0,43,44
 29 676 29 676 53 672 c 0,45,46
 83 667 83 667 86 667 c 0,47,48
 88 667 88 667 187 688 c 1,49,-1
 189 662 l 1,50,-1
 256 519 l 1,51,-1
 291 461 l 1,52,-1
 299 472 l 2,53,54
 347 538 347 538 365 594 c 0,55,56
 366 596 366 596 373 619 c 2,57,-1
 389 672 l 1,58,59
 393 671 393 671 472 666 c 0,60,61
 485 665 485 665 509 670.5 c 128,-1,62
 533 676 533 676 544 676 c 0,63,64
 563 676 563 676 568 657 c 0,65,66
 570 641 570 641 566 631 c 2,67,-1
 535 571 l 1,68,-1
 535 569 l 1,69,-1
 534 562 l 1,70,-1
 534 563 l 1,71,72
 470 442 470 442 409 354 c 0,73,74
 400 342 400 342 380 314 c 1,75,76
 474 226 474 226 534 86 c 1,77,-1
 535 79 l 1,78,-1
 535 77 l 1,0,-1
EndSplineSet
EndChar

StartChar: Y
Encoding: 89 89 58
Width: 585
GlyphClass: 1
Flags: W
LayerCount: 2
Fore
SplineSet
372 230 m 1,0,-1
 366 0 l 1,1,2
 344 -11 344 -11 329 -11 c 0,3,4
 318 -11 318 -11 308 -6 c 1,5,-1
 265 -11 l 1,6,-1
 203 0 l 1,7,-1
 203 284 l 1,8,9
 183 321 183 321 128 421 c 0,10,11
 95 481 95 481 83 507 c 0,12,13
 60 557 60 557 49 599 c 0,14,15
 48 600 48 600 50.5 606 c 128,-1,16
 53 612 53 612 53 613 c 0,17,18
 53 619 53 619 46.5 624.5 c 128,-1,19
 40 630 40 630 40 631 c 2,20,-1
 -4 702 l 1,21,-1
 -11 702 l 2,22,23
 -14 702 -14 702 13 712 c 1,24,25
 43 713 43 713 102 722 c 1,26,-1
 175 743 l 1,27,-1
 175 726 l 1,28,29
 182 702 182 702 197 656 c 0,30,31
 217 595 217 595 246 534 c 2,32,-1
 293 435 l 1,33,34
 310 459 310 459 337 504 c 0,35,36
 355 535 355 535 371 585 c 0,37,38
 375 602 375 602 392 667 c 2,39,-1
 406 722 l 1,40,41
 432 724 432 724 479 718 c 0,42,43
 499 714 499 714 506 714 c 0,44,45
 508 714 508 714 516.5 715 c 128,-1,46
 525 716 525 716 531 717 c 0,47,48
 541 719 541 719 572 710 c 0,49,50
 575 709 575 709 577 707 c 1,51,52
 575 705 575 705 569 708 c 1,53,-1
 549 641 l 2,54,55
 547 633 547 633 540 627 c 128,-1,56
 533 621 533 621 532 616 c 2,57,-1
 532 605 l 1,58,59
 521 549 521 549 453 425 c 0,60,61
 432 387 432 387 369 272 c 1,62,-1
 372 230 l 1,0,-1
EndSplineSet
EndChar

StartChar: Z
Encoding: 90 90 59
Width: 693
GlyphClass: 1
Flags: W
LayerCount: 2
Fore
SplineSet
36 515 m 1,0,-1
 41 712 l 1,1,-1
 236 715 l 1,2,-1
 316 712 l 2,3,4
 325 711 325 711 324 709 c 1,5,6
 361 702 361 702 392 702 c 0,7,8
 425 702 425 702 500 710 c 0,9,10
 569 718 569 718 608 716 c 1,11,12
 607 633 607 633 619 524 c 1,13,14
 553 479 553 479 435 337 c 128,-1,15
 317 195 317 195 249 148 c 1,16,17
 363 147 363 147 605 196 c 1,18,19
 618 186 618 186 618 163 c 0,20,21
 616 162 616 162 616 158 c 0,22,23
 616 147 616 147 621 126 c 0,24,25
 627 101 627 101 627 94 c 2,26,-1
 627 43 l 2,27,28
 627 32 627 32 638 -3 c 1,29,30
 586 -21 586 -21 567 -21 c 0,31,32
 540 -21 540 -21 525 4 c 1,33,34
 482 -5 482 -5 419 -5 c 0,35,36
 394 -5 394 -5 345 -3 c 128,-1,37
 296 -1 296 -1 271 -1 c 0,38,39
 176 -1 176 -1 118 -25 c 0,40,41
 72 -44 72 -44 55 -44 c 0,42,43
 46 -44 46 -44 37 -41 c 1,44,45
 37 113 37 113 54 198 c 1,46,47
 110 226 110 226 205 346 c 0,48,49
 317 488 317 488 353 519 c 1,50,51
 287 528 287 528 242 526 c 2,52,-1
 36 515 l 1,0,-1
EndSplineSet
EndChar

StartChar: bracketleft
Encoding: 91 91 60
Width: 290
GlyphClass: 1
Flags: W
LayerCount: 2
Fore
SplineSet
155 -36 m 1,0,1
 197 -34 197 -34 219 -34 c 2,2,-1
 280 -34 l 1,3,-1
 280 -155 l 1,4,-1
 219 -155 l 2,5,6
 183 -155 183 -155 118.5 -159.5 c 128,-1,7
 54 -164 54 -164 17 -164 c 2,8,-1
 5 -164 l 1,9,-1
 5 -122 l 1,10,-1
 3 -122 l 1,11,-1
 6 254 l 2,12,13
 7 426 7 426 16 510 c 0,14,15
 20 545 20 545 23 563 c 0,16,17
 21 570 21 570 14 573 c 0,18,19
 11 578 11 578 13 603 c 2,20,-1
 19 666 l 1,21,-1
 10 666 l 1,22,-1
 10 787 l 1,23,-1
 71 787 l 2,24,25
 109 787 109 787 182.5 789 c 128,-1,26
 256 791 256 791 293 791 c 2,27,-1
 354 791 l 1,28,-1
 354 669 l 1,29,-1
 293 669 l 2,30,31
 216 669 216 669 178 668 c 1,32,33
 170 568 170 568 167 366 c 0,34,35
 163 104 163 104 155 -36 c 1,0,1
EndSplineSet
EndChar

StartChar: backslash
Encoding: 92 92 61
Width: 525
GlyphClass: 1
Flags: W
LayerCount: 2
Fore
SplineSet
67 554 m 2,0,-1
 5 680 l 1,1,2
 1 678 1 678 -1 679 c 1,3,4
 25 702 25 702 79 747 c 0,5,6
 101 764 101 764 131 787 c 1,7,-1
 140 760 l 1,8,9
 195 646 195 646 323 435 c 0,10,11
 452 220 452 220 506 110 c 1,12,13
 473 95 473 95 387 24 c 1,14,-1
 246 254 l 2,15,16
 183 357 183 357 166 386 c 0,17,18
 121 465 121 465 97 525 c 0,19,20
 94 529 94 529 84 529 c 0,21,22
 78 531 78 531 67 554 c 2,0,-1
EndSplineSet
EndChar

StartChar: bracketright
Encoding: 93 93 62
Width: 290
GlyphClass: 1
Flags: W
LayerCount: 2
Fore
SplineSet
124 -36 m 1,0,1
 82 -34 82 -34 60 -34 c 2,2,-1
 -1 -34 l 1,3,-1
 -1 -155 l 1,4,-1
 60 -155 l 2,5,6
 96 -155 96 -155 160.5 -159.5 c 128,-1,7
 225 -164 225 -164 262 -164 c 2,8,-1
 274 -164 l 1,9,-1
 274 -122 l 1,10,-1
 276 -122 l 1,11,-1
 273 254 l 2,12,13
 272 426 272 426 263 510 c 0,14,15
 259 545 259 545 256 563 c 0,16,17
 258 570 258 570 263 573.5 c 128,-1,18
 268 577 268 577 266 603 c 2,19,-1
 260 666 l 1,20,-1
 268 666 l 1,21,-1
 268 787 l 1,22,-1
 208 787 l 2,23,24
 170 787 170 787 96.5 789 c 128,-1,25
 23 791 23 791 -14 791 c 2,26,-1
 -75 791 l 1,27,-1
 -75 669 l 1,28,-1
 -14 669 l 2,29,30
 63 669 63 669 101 668 c 1,31,32
 109 568 109 568 112 366 c 0,33,34
 116 104 116 104 124 -36 c 1,0,1
EndSplineSet
EndChar

StartChar: a
Encoding: 97 97 63
Width: 543
GlyphClass: 1
Flags: W
LayerCount: 2
Fore
SplineSet
519 -34 m 1,0,1
 460 -26 460 -26 429 -26 c 0,2,3
 389 -26 389 -26 367 -36 c 1,4,5
 339 -13 339 -13 327 54 c 0,6,7
 308 161 308 161 305 164 c 0,8,9
 303 174 303 174 294.5 200 c 128,-1,10
 286 226 286 226 274 226 c 0,11,12
 266 226 266 226 248.5 220 c 128,-1,13
 231 214 231 214 223 214 c 0,14,15
 206 214 206 214 201 200 c 2,16,-1
 184 151 l 2,17,18
 166 99 166 99 166 31 c 0,19,20
 166 5 166 5 170 -3 c 1,21,22
 151 3 151 3 121 3 c 0,23,24
 117 3 117 3 88 2 c 128,-1,25
 59 1 59 1 55 1 c 0,26,27
 27 1 27 1 4 6 c 1,28,29
 4 649 4 649 23 678 c 0,30,31
 56 727 56 727 95 729 c 0,32,33
 198 733 198 733 293 709 c 0,34,35
 461 666 461 666 467 549 c 1,36,-1
 459 427 l 1,37,-1
 473 266 l 1,38,-1
 519 -34 l 1,0,1
324 509 m 1,39,40
 296 565 296 565 235 559 c 1,41,42
 164 561 164 561 164 427 c 0,43,44
 164 409 164 409 168 361 c 1,45,46
 197 353 197 353 225 353 c 2,47,-1
 334 353 l 1,48,-1
 324 509 l 1,39,40
EndSplineSet
EndChar

StartChar: b
Encoding: 98 98 64
Width: 587
GlyphClass: 1
Flags: W
LayerCount: 2
Fore
SplineSet
363 527 m 1,0,1
 343 573 343 573 295 591 c 0,2,3
 278 597 278 597 198 611 c 1,4,-1
 196 424 l 1,5,6
 207 417 207 417 233 417 c 1,7,8
 232 417 232 417 232 417 c 129,-1,9
 232 417 232 417 233 417 c 2,10,11
 233 417 233 417 236 418 c 2,12,-1
 277 418 l 2,13,14
 303 418 303 418 311 411 c 1,15,-1
 363 527 l 1,0,1
368 193 m 1,16,17
 348 241 348 241 301 258 c 0,18,19
 288 263 288 263 204 277 c 1,20,-1
 203 90 l 1,21,22
 211 83 211 83 239 83 c 1,23,24
 238 83 238 83 242 84 c 2,25,-1
 284 84 l 2,26,27
 310 84 310 84 316 76 c 1,28,-1
 368 193 l 1,16,17
512 48 m 0,29,30
 507 30 507 30 493 8 c 0,31,32
 474 -20 474 -20 452 -25 c 1,33,34
 452 -31 452 -31 427 -31 c 0,35,36
 407 -31 407 -31 367 -28 c 128,-1,37
 327 -25 327 -25 307 -25 c 0,38,39
 279 -25 279 -25 271 -30 c 1,40,-1
 34 5 l 1,41,-1
 21 747 l 1,42,43
 32 744 32 744 63 747 c 0,44,45
 87 749 87 749 138 751 c 0,46,47
 168 752 168 752 246 735 c 0,48,49
 512 677 512 677 515 530 c 1,50,-1
 504 409 l 1,51,-1
 424 329 l 1,52,53
 546 316 546 316 546 183 c 0,54,55
 546 120 546 120 512 48 c 0,29,30
EndSplineSet
EndChar

StartChar: c
Encoding: 99 99 65
Width: 558
GlyphClass: 1
Flags: W
LayerCount: 2
Fore
SplineSet
-15 439 m 1,0,1
 -2 597 -2 597 190 670 c 0,2,3
 321 720 321 720 520 726 c 1,4,5
 532 659 532 659 554 532 c 1,6,7
 459 529 459 529 347 492 c 0,8,9
 209 446 209 446 198 339 c 1,10,11
 213 268 213 268 350 205 c 0,12,13
 529 123 529 123 523 87 c 0,14,15
 518 58 518 58 547 -50 c 1,16,17
 546 -49 546 -49 499 -50 c 0,18,19
 286 -52 286 -52 141 63 c 0,20,21
 -15 188 -15 188 -15 395 c 0,22,23
 -15 439 -15 439 -15 439 c 1,0,1
EndSplineSet
EndChar

StartChar: d
Encoding: 100 100 66
Width: 638
GlyphClass: 1
Flags: W
LayerCount: 2
Fore
SplineSet
625 311 m 0,0,1
 625 151 625 151 427 54 c 0,2,3
 296 -10 296 -10 88 -41 c 1,4,5
 57 72 57 72 50 237 c 0,6,7
 48 310 48 310 41 520 c 0,8,9
 35 671 35 671 -7 780 c 1,10,11
 2 780 2 780 21 784.5 c 128,-1,12
 40 789 40 789 48 789 c 0,13,14
 183 789 183 789 314.5 726.5 c 128,-1,15
 446 664 446 664 531 560 c 0,16,17
 625 445 625 445 625 311 c 0,0,1
394 399 m 0,18,19
 394 440 394 440 330.5 500.5 c 128,-1,20
 267 561 267 561 227 555 c 1,21,22
 227 440 227 440 218 380 c 1,23,24
 224 347 224 347 224 302 c 0,25,26
 224 284 224 284 220 232 c 0,27,28
 217 188 217 188 219 163 c 1,29,30
 296 161 296 161 348 244 c 0,31,32
 394 317 394 317 394 399 c 0,18,19
EndSplineSet
EndChar

StartChar: e
Encoding: 101 101 67
Width: 482
GlyphClass: 1
Flags: W
LayerCount: 2
Fore
SplineSet
442 645 m 1,0,1
 423 636 423 636 349 633 c 0,2,3
 289 630 289 630 256 610 c 1,4,-1
 256 464 l 1,5,-1
 268 453 l 1,6,7
 278 461 278 461 303 461 c 0,8,9
 310 461 310 461 363 455 c 0,10,11
 405 450 405 450 424 449 c 1,12,13
 424 421 424 421 414 367 c 128,-1,14
 404 313 404 313 404 286 c 1,15,-1
 271 286 l 1,16,17
 262 263 262 263 255 224 c 0,18,19
 245 169 245 169 237 146 c 1,20,21
 288 128 288 128 357 128 c 0,22,23
 388 128 388 128 405 130 c 1,24,-1
 413 -28 l 1,25,-1
 43 -35 l 1,26,-1
 43 783 l 1,27,28
 224 773 224 773 321 773 c 0,29,30
 412 773 412 773 442 785 c 1,31,-1
 442 645 l 1,0,1
EndSplineSet
EndChar

StartChar: f
Encoding: 102 102 68
Width: 479
GlyphClass: 1
Flags: W
LayerCount: 2
Fore
SplineSet
1 -59 m 1,0,-1
 1 759 l 1,1,2
 105 753 105 753 210 753 c 0,3,4
 398 753 398 753 421 760 c 1,5,-1
 458 620 l 1,6,7
 439 612 439 612 336 609 c 0,8,9
 247 606 247 606 213 586 c 1,10,-1
 213 439 l 1,11,-1
 226 428 l 1,12,13
 236 436 236 436 261 436 c 0,14,15
 284 436 284 436 322 431 c 0,16,17
 367 425 367 425 382 424 c 1,18,19
 382 408 382 408 369 338 c 0,20,21
 362 302 362 302 362 275 c 1,22,-1
 209 259 l 1,23,24
 201 239 201 239 204 168 c 2,25,-1
 210 36 l 2,26,27
 212 -7 212 -7 203 -31 c 1,28,-1
 1 -59 l 1,0,-1
EndSplineSet
EndChar

StartChar: g
Encoding: 103 103 69
Width: 653
GlyphClass: 1
Flags: W
LayerCount: 2
Fore
SplineSet
224 670 m 0,0,1
 354 720 354 720 555 726 c 1,2,3
 574 623 574 623 588 532 c 1,4,5
 493 529 493 529 382 492 c 0,6,7
 245 446 245 446 233 339 c 1,8,9
 246 284 246 284 298 226 c 128,-1,10
 350 168 350 168 403 143 c 0,11,12
 418 138 418 138 421 138 c 0,13,14
 441 138 441 138 445 168 c 0,15,16
 448 191 448 191 448 230 c 0,17,18
 448 234 448 234 416 238 c 128,-1,19
 384 242 384 242 384 245 c 0,20,21
 384 285 384 285 385 292 c 0,22,23
 388 313 388 313 403 313 c 0,24,25
 427 313 427 313 508 318 c 2,26,-1
 589 323 l 2,27,28
 615 325 615 325 615 233 c 0,29,30
 615 205 615 205 609 117 c 0,31,32
 605 58 605 58 605 0 c 0,33,34
 605 -35 605 -35 608 -50 c 1,35,36
 608 -50 608 -50 560 -50 c 0,37,38
 445 -51 445 -51 343 -20 c 0,39,40
 194 25 194 25 109 131 c 0,41,42
 19 241 19 241 19 395 c 0,43,44
 19 501 19 501 71 568 c 0,45,46
 119 629 119 629 224 670 c 0,0,1
EndSplineSet
EndChar

StartChar: h
Encoding: 104 104 70
Width: 641
GlyphClass: 1
Flags: W
LayerCount: 2
Fore
SplineSet
209 424 m 1,0,-1
 420 436 l 1,1,2
 426 541 426 541 426 611 c 0,3,4
 426 653 426 653 425 670 c 2,5,-1
 417 697 l 1,6,7
 439 695 439 695 506 688 c 0,8,9
 524 686 524 686 579 680 c 0,10,11
 602 677 602 677 647 671 c 1,12,13
 645 671 645 671 638 669 c 1,14,-1
 646 536 l 2,15,16
 647 512 647 512 639 508 c 128,-1,17
 631 504 631 504 627 500 c 1,18,19
 630 480 630 480 632 449 c 0,20,21
 636 375 636 375 622 208 c 2,22,-1
 600 -47 l 1,23,24
 444 -31 444 -31 400 -35 c 1,25,26
 399 -18 399 -18 399 21 c 0,27,28
 399 92 399 92 407 231 c 1,29,-1
 201 221 l 1,30,31
 201 221 201 221 198 185 c 2,32,-1
 177 -70 l 1,33,34
 25 -53 25 -53 -24 -56 c 1,35,36
 -25 -41 -25 -41 -25 -2 c 0,37,38
 -25 115 -25 115 -12 294 c 0,39,40
 3 501 3 501 3 589 c 0,41,42
 3 613 3 613 1 647 c 1,43,-1
 -6 675 l 1,44,45
 93 668 93 668 223 649 c 1,46,47
 222 647 222 647 215 647 c 1,48,-1
 221 515 l 2,49,50
 222 490 222 490 217 487 c 0,51,52
 205 481 205 481 204 477 c 0,53,54
 209 435 209 435 209 427 c 2,55,-1
 209 424 l 1,0,-1
EndSplineSet
EndChar

StartChar: i
Encoding: 105 105 71
Width: 332
GlyphClass: 1
Flags: W
LayerCount: 2
Fore
SplineSet
289 533 m 2,0,1
 289 508 289 508 283 505 c 0,2,3
 271 501 271 501 269 497 c 0,4,5
 271 481 271 481 271 446 c 0,6,7
 271 364 271 364 249 205 c 2,8,-1
 214 -48 l 1,9,10
 63 -24 63 -24 15 -25 c 1,11,12
 15 93 15 93 45.5 326.5 c 128,-1,13
 76 560 76 560 76 678 c 1,14,-1
 70 705 l 1,15,16
 84 702 84 702 158 692 c 0,17,18
 186 688 186 688 230 680 c 2,19,-1
 298 667 l 1,20,21
 296 666 296 666 289 666 c 1,22,-1
 289 533 l 2,0,1
EndSplineSet
EndChar

StartChar: j
Encoding: 106 106 72
Width: 470
GlyphClass: 1
Flags: W
LayerCount: 2
Fore
SplineSet
444 262 m 1,0,-1
 417 80 l 2,1,2
 409 25 409 25 371 2 c 0,3,4
 349 -11 349 -11 279 -25 c 0,5,6
 264 -28 264 -28 253 -28 c 0,7,8
 174 -28 174 -28 7 42 c 1,9,10
 11 57 11 57 45 117 c 1,11,12
 55 146 55 146 73 186 c 0,13,14
 75 198 75 198 75 201 c 0,15,16
 75 208 75 208 71 218 c 1,17,18
 181 131 181 131 210 128 c 0,19,20
 214 127 214 127 225 127 c 0,21,22
 244 127 244 127 256 138 c 0,23,24
 262 143 262 143 275 168 c 1,25,-1
 256 401 l 1,26,-1
 243 678 l 1,27,28
 277 676 277 676 329 687 c 0,29,30
 391 699 391 699 408 699 c 0,31,32
 441 698 441 698 441 617 c 0,33,34
 441 581 441 581 433 499 c 0,35,36
 426 422 426 422 427 380 c 0,37,38
 429 323 429 323 444 262 c 1,0,-1
EndSplineSet
EndChar

StartChar: k
Encoding: 107 107 73
Width: 636
GlyphClass: 1
Flags: W
LayerCount: 2
Fore
SplineSet
264 556 m 1,0,1
 290 577 290 577 320 599 c 1,2,-1
 505 703 l 1,3,-1
 575 543 l 1,4,-1
 330 382 l 1,5,6
 321 370 321 370 297 346 c 1,7,-1
 367 294 l 2,8,9
 380 284 380 284 375.5 281.5 c 128,-1,10
 371 279 371 279 395 262 c 0,11,12
 424 241 424 241 440 210 c 0,13,14
 469 156 469 156 473 151 c 0,15,16
 511 97 511 97 553 48 c 0,17,18
 566 34 566 34 597 -5 c 1,19,20
 566 -10 566 -10 485 -8 c 0,21,22
 411 -7 411 -7 389 -13 c 1,23,24
 371 7 371 7 318 79 c 2,25,-1
 233 195 l 1,26,27
 233 193 233 193 221 -16 c 1,28,29
 70 -1 70 -1 20 -5 c 1,30,31
 19 11 19 11 19 48 c 0,32,33
 19 148 19 148 32.5 347.5 c 128,-1,34
 46 547 46 547 46 647 c 0,35,36
 46 692 46 692 45 709 c 2,37,-1
 38 735 l 1,38,39
 115 728 115 728 267 710 c 1,40,41
 266 709 266 709 259 709 c 1,42,-1
 264 556 l 1,0,1
EndSplineSet
EndChar

StartChar: l
Encoding: 108 108 74
Width: 470
GlyphClass: 1
Flags: W
LayerCount: 2
Fore
SplineSet
427 148 m 1,0,1
 415 127 415 127 415 86 c 0,2,3
 415 47 415 47 431 -29 c 1,4,-1
 102 -3 l 1,5,6
 94 2 94 2 80 2 c 0,7,8
 79 2 79 2 41 -5 c 0,9,10
 29 -7 29 -7 20 -7 c 1,11,-1
 22 275 l 1,12,13
 39 318 39 318 39 397 c 0,14,15
 39 446 39 446 34 507 c 0,16,17
 30 556 30 556 30 618 c 0,18,19
 30 701 30 701 61 703 c 0,20,21
 89 704 89 704 149 698 c 0,22,23
 215 691 215 691 235 692 c 1,24,-1
 233 404 l 1,25,-1
 215 173 l 1,26,27
 237 164 237 164 266 144 c 1,28,-1
 427 148 l 1,0,1
EndSplineSet
EndChar

StartChar: m
Encoding: 109 109 75
Width: 903
GlyphClass: 1
Flags: W
LayerCount: 2
Fore
SplineSet
895 -16 m 0,0,1
 894 -47 894 -47 842 -64 c 0,2,3
 803 -77 803 -77 762 -75 c 0,4,5
 736 -74 736 -74 696 96 c 2,6,-1
 630 376 l 1,7,8
 604 306 604 306 588 197 c 0,9,10
 567 53 567 53 561 31 c 1,11,12
 525 33 525 33 507 33 c 0,13,14
 437 33 437 33 365 22 c 1,15,-1
 326 211 l 2,16,17
 303 318 303 318 271 394 c 1,18,19
 246 281 246 281 236 153 c 2,20,-1
 219 -71 l 1,21,-1
 207 -81 l 2,22,23
 201 -86 201 -86 190 -86 c 1,24,25
 190 -82 190 -82 188 -80 c 0,26,27
 155 -98 155 -98 132 -97 c 0,28,29
 19 -93 19 -93 -11 -106 c 1,30,-1
 -8 -26 l 2,31,32
 -7 -2 -7 -2 -1 7 c 0,33,34
 1 10 1 10 24 32 c 1,35,36
 46 303 46 303 97 523 c 0,37,38
 99 532 99 532 99 548 c 0,39,40
 99 561 99 561 97 587.5 c 128,-1,41
 95 614 95 614 95 627 c 0,42,43
 95 663 95 663 106 688 c 1,44,45
 289 683 289 683 346 662 c 1,46,47
 354 613 354 613 358 590 c 0,48,49
 399 377 399 377 423 313 c 1,50,51
 460 437 460 437 477 532 c 2,52,-1
 512 730 l 1,53,-1
 707 719 l 1,54,55
 766 544 766 544 832 278 c 0,56,57
 897 18 897 18 895 -16 c 0,0,1
EndSplineSet
EndChar

StartChar: n
Encoding: 110 110 76
Width: 773
GlyphClass: 1
Flags: W
LayerCount: 2
Fore
SplineSet
108 51 m 1,0,-1
 102 51 l 1,1,2
 43 28 43 28 27 15 c 0,3,4
 -4 -15 -4 -15 -60 -21 c 1,5,6
 -47 -19 -47 -19 -30 -27 c 1,7,-1
 81 6 l 1,8,-1
 135 24 l 1025,9,-1
210 552 m 0,10,11
 211 584 211 584 180 657 c 1,12,-1
 189 657 l 1,13,14
 206 651 206 651 218.5 620.5 c 128,-1,15
 231 590 231 590 240 582 c 1,16,-1
 249 579 l 1025,17,-1
324 507 m 1,18,-1
 330 507 l 1,19,20
 351 517 351 517 382.5 552 c 128,-1,21
 414 587 414 587 426 594 c 1,22,23
 427 581 427 581 419.5 564.5 c 128,-1,24
 412 548 412 548 404.5 537.5 c 128,-1,25
 397 527 397 527 380 507 c 128,-1,26
 363 487 363 487 360 483 c 2,27,-1
 336 465 l 1025,28,-1
405 264 m 1,29,-1
 405 270 l 2,30,31
 403 286 403 286 398 304 c 128,-1,32
 393 322 393 322 389 332.5 c 128,-1,33
 385 343 385 343 375.5 364.5 c 128,-1,34
 366 386 366 386 363 393 c 1,35,-1
 369 393 l 1,36,37
 371 389 371 389 388.5 357 c 128,-1,38
 406 325 406 325 420 312 c 1,39,-1
 414 309 l 1025,40,-1
540 57 m 1,41,-1
 567 -90 l 1,42,43
 570 -89 570 -89 573 -93 c 128,-1,44
 576 -97 576 -97 579 -96 c 0,45,46
 584.559605884 -97.3689006418 584.559605884 -97.3689006418 584.463395566 -94.9422393948 c 0,47,48
 584.385076321 -92.9668350697 584.385076321 -92.9668350697 578.749359673 -85.4260681528 c 0,49,50
 566.823609548 -69.4690377289 566.823609548 -69.4690377289 576 -69 c 1,51,-1
 579 75 l 1025,52,-1
402 168 m 1,53,-1
 303 54 l 1,54,-1
 432 111 l 1025,55,-1
474 111 m 1,56,-1
 429 39 l 1,57,-1
 495 54 l 1,58,-1
 498 60 l 1025,59,-1
552 384 m 1,60,-1
 552 378 l 2,61,62
 552 364 552 364 547 349.5 c 128,-1,63
 542 335 542 335 533.5 317 c 128,-1,64
 525 299 525 299 522 291 c 0,65,66
 521 289 521 289 514.5 279 c 128,-1,67
 508 269 508 269 507 261 c 1,68,69
 522 271 522 271 535 285 c 128,-1,70
 548 299 548 299 565 321.5 c 128,-1,71
 582 344 582 344 588 351 c 1,72,-1
 585 348 l 1025,73,-1
198 309 m 1,74,-1
 180 207 l 2,75,76
 176 203 176 203 172.5 194 c 128,-1,77
 169 185 169 185 168 183 c 1,78,79
 187 189 187 189 207 220.5 c 128,-1,80
 227 252 227 252 234 258 c 2,81,-1
 243 276 l 1025,82,-1
195 480 m 1,83,-1
 69 459 l 1,84,-1
 156 438 l 1,85,-1
 189 426 l 1025,86,-1
312 642 m 1,87,-1
 336 777 l 1,88,-1
 342 684 l 1,89,-1
 351 651 l 1025,90,-1
594 297 m 1,91,-1
 663 318 l 2,92,93
 666 321 666 321 675.5 324.5 c 128,-1,94
 685 328 685 328 687 330 c 1,95,-1
 681 330 l 1,96,97
 673 317 673 317 649.5 298.5 c 128,-1,98
 626 280 626 280 618 267 c 1,99,-1
 588 249 l 1025,100,-1
600 516 m 1,101,-1
 612 588 l 1,102,-1
 624 558 l 1,103,-1
 627 543 l 1025,104,-1
552 666 m 1,105,-1
 540 834 l 1,106,107
 547 824 547 824 552 789.5 c 128,-1,108
 557 755 557 755 568.5 734.5 c 128,-1,109
 580 714 580 714 606 723 c 1024,110,-1
513 462 m 1,111,-1
 507 462 l 1,112,113
 502 477 502 477 494.5 536.5 c 128,-1,114
 487 596 487 596 471 618 c 1,115,-1
 468.557734205 618 l 1,116,-1
 477 618 l 2,117,118
 488 620 488 620 504.5 605 c 128,-1,119
 521 590 521 590 531 591 c 1024,120,-1
678 453 m 0,121,122
 679 472 679 472 692 505.5 c 128,-1,123
 705 539 705 539 708 552 c 2,124,-1
 708 558 l 1,125,-1
 690 549 l 1025,126,-1
654 717 m 1,127,-1
 660 717 l 1,128,129
 664 723 664 723 674 737 c 128,-1,130
 684 751 684 751 689.5 759 c 128,-1,131
 695 767 695 767 701.5 779.5 c 128,-1,132
 708 792 708 792 711 804 c 2,133,-1
 711 828 l 1,134,135
 708 828 708 828 707.5 823 c 128,-1,136
 707 818 707 818 709 813 c 128,-1,137
 711 808 711 808 714 807 c 0,138,139
 717 793 717 793 713.5 779 c 128,-1,140
 710 765 710 765 702.5 749 c 128,-1,141
 695 733 695 733 693 723 c 2,142,-1
 687 669 l 1025,143,-1
525 755 m 1,144,-1
 720 754 l 1,145,-1
 667 387 l 2,146,147
 665 379 665 379 662 376 c 0,148,149
 644 309 644 309 634 188 c 0,150,151
 623 54 623 54 614 -2 c 1,152,153
 515 -2 515 -2 420 -22 c 1,154,155
 345 258 345 258 286 466 c 1,156,157
 261 295 261 295 255 -8 c 1,158,159
 246 -24 246 -24 227 -25 c 0,160,161
 226 -23 226 -23 223 -23 c 0,162,163
 219 -23 219 -23 197 -31 c 0,164,165
 179 -39 179 -39 170 -41 c 2,166,-1
 101 -43 l 2,167,168
 62 -45 62 -45 36 -58 c 1,169,170
 36 -55 36 -55 34 -25 c 0,171,172
 33 -10 33 -10 33 7 c 0,173,174
 33 65 33 65 63 93 c 1,175,176
 65 176 65 176 93 337 c 128,-1,177
 121 498 121 498 121 583 c 0,178,179
 121 615 121 615 119 633 c 0,180,181
 111 706 111 706 121 742 c 1,182,183
 308 745 308 745 364 726 c 1,184,185
 398 463 398 463 459 297 c 1,186,187
 485 414 485 414 498 525 c 2,188,-1
 525 755 l 1,144,-1
EndSplineSet
EndChar

StartChar: o
Encoding: 111 111 77
Width: 678
GlyphClass: 1
Flags: W
LayerCount: 2
Fore
SplineSet
645 416 m 0,0,1
 645 284 645 284 580 155 c 0,2,3
 494 -16 494 -16 338 -16 c 0,4,5
 243 -16 243 -16 162 25 c 0,6,7
 96 59 96 59 52 160 c 0,8,9
 13 251 13 251 13 335 c 0,10,11
 13 435 13 435 71 540 c 0,12,13
 125 639 125 639 209 705 c 0,14,15
 301 777 301 777 393 777 c 0,16,17
 549 777 549 777 608 647 c 0,18,19
 645 565 645 565 645 416 c 0,0,1
454 409 m 0,20,21
 454 480 454 480 394 571 c 1,22,23
 373 560 373 560 299 527 c 1,24,25
 201 364 201 364 201 311 c 0,26,27
 201 256 201 256 223 212 c 0,28,29
 251 157 251 157 301 157 c 0,30,31
 364 157 364 157 412 252 c 0,32,33
 454 335 454 335 454 409 c 0,20,21
EndSplineSet
EndChar

StartChar: p
Encoding: 112 112 78
Width: 543
GlyphClass: 1
Flags: W
LayerCount: 2
Fore
SplineSet
235 206 m 0,0,1
 201 206 201 206 186 138 c 0,2,3
 176 92 176 92 176 45 c 0,4,5
 176 4 176 4 182 -13 c 1,6,7
 155 -4 155 -4 98.5 -3.5 c 128,-1,8
 42 -3 42 -3 16 6 c 1,9,-1
 16 749 l 1,10,11
 26 746 26 746 59 748 c 0,12,13
 96 750 96 750 134 750 c 0,14,15
 176 750 176 750 247 733 c 0,16,17
 507 671 507 671 507 524 c 1,18,-1
 493 403 l 1,19,20
 450 299 450 299 398 256 c 0,21,22
 339 206 339 206 235 206 c 0,0,1
337 476 m 1,23,24
 316 526 316 526 280 545 c 0,25,26
 258 556 258 556 195 567 c 1,27,-1
 195 353 l 1,28,29
 204 347 204 347 240 343 c 0,30,31
 273 339 273 339 278 331 c 1,32,-1
 337 476 l 1,23,24
EndSplineSet
EndChar

StartChar: q
Encoding: 113 113 79
Width: 678
GlyphClass: 1
Flags: W
LayerCount: 2
Fore
SplineSet
454 409 m 0,0,1
 454 480 454 480 394 571 c 1,2,3
 373 560 373 560 299 527 c 1,4,5
 201 364 201 364 201 311 c 0,6,7
 201 257 201 257 223 213 c 0,8,9
 236 188 236 188 273 169 c 0,10,11
 307 152 307 152 338 152 c 0,12,13
 340 153 340 153 340 155 c 0,14,15
 340 164 340 164 331.5 184 c 128,-1,16
 323 204 323 204 323 211 c 0,17,18
 323 214 323 214 324 215 c 0,19,20
 335 219 335 219 339 223 c 0,21,22
 345 231 345 231 370 252 c 0,23,24
 383 268 383 268 414 217 c 0,25,26
 415 217 415 217 415 218 c 0,27,28
 454 293 454 293 454 409 c 0,0,1
399 -36 m 0,29,30
 397 -28 397 -28 394 -11 c 1,31,32
 370 -16 370 -16 338 -16 c 0,33,34
 243 -16 243 -16 162 25 c 0,35,36
 96 59 96 59 52 160 c 0,37,38
 13 251 13 251 13 335 c 0,39,40
 13 435 13 435 71 540 c 0,41,42
 125 639 125 639 209 705 c 0,43,44
 301 777 301 777 393 777 c 0,45,46
 549 777 549 777 608 647 c 0,47,48
 645 565 645 565 645 416 c 0,49,50
 645 283 645 283 580 155 c 0,51,52
 548 93 548 93 515 58 c 1,53,54
 559 -14 559 -14 599 -107 c 1,55,56
 569 -105 569 -105 522 -116 c 128,-1,57
 475 -127 475 -127 447 -138 c 1,58,59
 418 -115 418 -115 399 -36 c 0,29,30
EndSplineSet
EndChar

StartChar: r
Encoding: 114 114 80
Width: 543
GlyphClass: 1
Flags: W
LayerCount: 2
Fore
SplineSet
524 -60 m 1,0,1
 496 -59 496 -59 447 -69 c 128,-1,2
 398 -79 398 -79 372 -92 c 1,3,4
 344 -69 344 -69 323 12 c 2,5,-1
 288 142 l 1,6,7
 263 206 263 206 219 206 c 0,8,9
 185 206 185 206 169 138 c 0,10,11
 160 99 160 99 160 45 c 0,12,13
 160 4 160 4 166 -13 c 1,14,15
 138 -4 138 -4 82 -3 c 0,16,17
 23 -2 23 -2 0 6 c 1,18,-1
 0 749 l 1,19,20
 10 746 10 746 43 748 c 0,21,22
 80 750 80 750 117 750 c 0,23,24
 159 750 159 750 230 733 c 0,25,26
 491 671 491 671 491 524 c 1,27,-1
 476 403 l 1,28,-1
 389 239 l 1,29,-1
 524 -60 l 1,0,1
320 476 m 1,30,31
 301 525 301 525 263 545 c 0,32,33
 241 557 241 557 178 567 c 1,34,-1
 178 353 l 1,35,36
 189 346 189 346 223 343 c 128,-1,37
 257 340 257 340 261 331 c 1,38,-1
 320 476 l 1,30,31
EndSplineSet
EndChar

StartChar: s
Encoding: 115 115 81
Width: 568
GlyphClass: 1
Flags: W
LayerCount: 2
Fore
SplineSet
541 464 m 1,0,1
 512 464 512 464 455.5 473.5 c 128,-1,2
 399 483 399 483 371 483 c 1,3,4
 378 503 378 503 378 522 c 0,5,6
 378 560 378 560 353.5 589 c 128,-1,7
 329 618 329 618 291 618 c 0,8,9
 243 618 243 618 213 556 c 1,10,11
 218 499 218 499 334 425 c 2,12,-1
 500 319 l 1,13,14
 525 238 525 238 525 210 c 0,15,16
 525 139 525 139 447.5 57.5 c 128,-1,17
 370 -24 370 -24 299 -24 c 0,18,19
 202 -24 202 -24 110 37 c 0,20,21
 8 104 8 104 8 196 c 2,22,-1
 8 270 l 1,23,-1
 39 275 l 1,24,25
 39 275 39 275 55 285 c 0,26,27
 64 288 64 288 75 288 c 0,28,29
 89 288 89 288 95 281 c 1,30,-1
 95 279 l 1,31,32
 103 271 103 271 124 270 c 2,33,34
 124 270 124 270 157 270 c 1,35,36
 172 225 172 225 186 189 c 0,37,38
 204 144 204 144 227 114 c 1,39,-1
 270 114 l 1,40,41
 318 192 318 192 318 227 c 1,42,43
 277 261 277 261 197 311 c 0,44,45
 110 365 110 365 76 400 c 0,46,47
 23 455 23 455 23 523 c 0,48,49
 23 592 23 592 83 679 c 128,-1,50
 143 766 143 766 207 784 c 0,51,52
 232 791 232 791 351 791 c 0,53,54
 395 791 395 791 468 713 c 128,-1,55
 541 635 541 635 541 594 c 2,56,-1
 541 464 l 1,0,1
EndSplineSet
EndChar

StartChar: t
Encoding: 116 116 82
Width: 559
GlyphClass: 1
Flags: W
LayerCount: 2
Fore
SplineSet
559 535 m 1,0,-1
 433 535 l 1,1,2
 415 528 415 528 382 506 c 1,3,-1
 400 276 l 1,4,-1
 402 -13 l 1,5,6
 372 -11 372 -11 315 -17 c 0,7,8
 255 -23 255 -23 228 -22 c 0,9,10
 193 -21 193 -21 193 172 c 0,11,12
 193 246 193 246 197 323 c 128,-1,13
 201 400 201 400 201 474 c 0,14,15
 201 500 201 500 158 508 c 0,16,17
 155 508 155 508 126 511 c 2,18,-1
 74 515 l 2,19,20
 25 519 25 519 19 533 c 2,21,-1
 -19 698 l 1,22,-1
 106 687 l 2,23,24
 188 681 188 681 237 681 c 0,25,26
 263 681 263 681 269 683 c 2,27,-1
 559 706 l 1,28,29
 547 652 547 652 547 600 c 0,30,31
 547 556 547 556 559 535 c 1,0,-1
EndSplineSet
EndChar

StartChar: u
Encoding: 117 117 83
Width: 533
GlyphClass: 1
Flags: W
LayerCount: 2
Fore
SplineSet
518 262 m 1,0,-1
 489 80 l 2,1,2
 481 27 481 27 451 7 c 0,3,4
 428 -9 428 -9 344 -25 c 0,5,6
 313 -31 313 -31 286 -31 c 0,7,8
 196 -31 196 -31 138 14.5 c 128,-1,9
 80 60 80 60 70 150 c 1,10,-1
 55 213 l 2,11,12
 43 262 43 262 24 349 c 0,13,14
 22 362 22 362 22 375 c 0,15,16
 22 390 22 390 24 417 c 0,17,18
 26 442 26 442 23 459 c 2,19,-1
 -4 623 l 2,20,21
 -4 634 -4 634 -1 638 c 0,22,23
 5 657 5 657 42 655 c 0,24,25
 59 654 59 654 66 654 c 0,26,27
 78 654 78 654 79.5 656.5 c 128,-1,28
 81 659 81 659 107.5 677 c 128,-1,29
 134 695 134 695 133 696 c 1,30,31
 165 659 165 659 195 514 c 0,32,33
 205 467 205 467 208 405 c 0,34,35
 210 361 210 361 216 297 c 1,36,37
 227 233 227 233 246 177 c 0,38,39
 253 160 253 160 260.5 143.5 c 128,-1,40
 268 127 268 127 287 127 c 256,41,42
 306 127 306 127 319 137 c 0,43,44
 325 143 325 143 340 168 c 1,45,-1
 320 401 l 1,46,-1
 306 678 l 1,47,48
 340 676 340 676 395 687 c 0,49,50
 459 700 459 700 480 699 c 0,51,52
 515 698 515 698 515 617 c 0,53,54
 515 592 515 592 507 499 c 128,-1,55
 499 406 499 406 500 380 c 0,56,57
 502 327 502 327 518 262 c 1,0,-1
EndSplineSet
EndChar

StartChar: v
Encoding: 118 118 84
Width: 585
GlyphClass: 1
Flags: W
LayerCount: 2
Fore
SplineSet
6 545 m 2,0,-1
 -44 656 l 1,1,2
 -50 653 -50 653 -52 655 c 0,3,4
 -52 658 -52 658 -24 670 c 0,5,6
 -12 675 -12 675 22 677 c 128,-1,7
 56 679 56 679 76 687 c 2,8,-1
 160 720 l 1,9,-1
 161 692 l 1,10,-1
 185 585 l 2,11,12
 206 492 206 492 241 394 c 2,13,-1
 295 241 l 1,14,15
 367 386 367 386 393 522 c 0,16,17
 406 591 406 591 422 700 c 1,18,-1
 423 729 l 1,19,20
 446 720 446 720 506 695 c 0,21,22
 520 689 520 689 549.5 685.5 c 128,-1,23
 579 682 579 682 590 678 c 0,24,25
 613 669 613 669 618 663 c 0,26,27
 617 662 617 662 609 664 c 1,28,-1
 586 561 l 2,29,30
 581 538 581 538 573.5 537 c 128,-1,31
 566 536 566 536 566 504 c 0,32,33
 563 487 563 487 557 455 c 0,34,35
 543 398 543 398 476 227 c 0,36,37
 432 115 432 115 380 -12 c 1,38,-1
 303 -62 l 1,39,-1
 202 -18 l 1,40,41
 178 41 178 41 106 219 c 0,42,43
 69 312 69 312 54 355 c 0,44,45
 26 439 26 439 16 497 c 0,46,47
 16 499 16 499 19 507 c 128,-1,48
 22 515 22 515 22 516 c 0,49,50
 16 526 16 526 6 545 c 2,0,-1
EndSplineSet
EndChar

StartChar: w
Encoding: 119 119 85
Width: 903
GlyphClass: 1
Flags: W
LayerCount: 2
Fore
SplineSet
895 641 m 0,0,1
 897 607 897 607 832 347 c 0,2,3
 766 82 766 82 707 -96 c 1,4,-1
 512 -106 l 1,5,-1
 477 92 l 2,6,7
 460 187 460 187 423 311 c 1,8,9
 398 243 398 243 358 35 c 0,10,11
 354 16 354 16 346 -38 c 1,12,13
 281 -61 281 -61 106 -65 c 1,14,15
 95 -38 95 -38 95 -4 c 0,16,17
 95 9 95 9 97 36 c 128,-1,18
 99 63 99 63 99 76 c 0,19,20
 99 93 99 93 97 102 c 0,21,22
 46 320 46 320 24 592 c 1,23,24
 4 609 4 609 -1.5 617.5 c 128,-1,25
 -7 626 -7 626 -8 651 c 2,26,-1
 -11 730 l 1,27,28
 23 715 23 715 132 720 c 0,29,30
 153 721 153 721 188 705 c 0,31,32
 190 706 190 706 190 710 c 0,33,34
 200 711 200 711 207 706 c 2,35,-1
 219 695 l 1,36,-1
 236 471 l 2,37,38
 246 344 246 344 271 229 c 1,39,40
 304 310 304 310 326 412 c 0,41,42
 335 452 335 452 359 570 c 2,43,-1
 365 602 l 1,44,45
 437 591 437 591 507 591 c 0,46,47
 525 591 525 591 561 593 c 1,48,49
 568 565 568 565 588 428 c 0,50,51
 605 314 605 314 630 249 c 1,52,53
 633 258 633 258 696 529 c 0,54,55
 735 696 735 696 762 698 c 0,56,57
 799 700 799 700 842 687 c 0,58,59
 894 671 894 671 895 641 c 0,0,1
EndSplineSet
EndChar

StartChar: x
Encoding: 120 120 86
Width: 585
GlyphClass: 1
Flags: W
LayerCount: 2
Fore
SplineSet
535 77 m 1,0,-1
 565 19 l 2,1,2
 568 18 568 18 571 16.5 c 128,-1,3
 574 15 574 15 573 6 c 2,4,-1
 568 -8 l 2,5,6
 565 -25 565 -25 543 -25 c 0,7,8
 532 -25 532 -25 508.5 -20 c 128,-1,9
 485 -15 485 -15 472 -16 c 0,10,11
 445 -18 445 -18 389 -22 c 1,12,-1
 373 31 l 2,13,14
 369 44 369 44 359 77 c 0,15,16
 346 113 346 113 299 178 c 2,17,-1
 291 189 l 1,18,-1
 256 131 l 1,19,-1
 189 -13 l 1,20,-1
 187 -40 l 1,21,22
 147 -31 147 -31 55 -15 c 0,23,24
 48 -14 48 -14 33 -15 c 0,25,26
 22 -16 22 -16 11 -16 c 0,27,28
 -5 -16 -5 -16 -8 -5 c 0,29,30
 -12 11 -12 11 -6 22 c 2,31,-1
 41 80 l 1,32,-1
 41 90 l 1,33,-1
 186 321 l 1,34,35
 99 436 99 436 41 560 c 1,36,-1
 41 568 l 1,37,-1
 40 570 l 1,38,-1
 -4 626 l 1,39,40
 -9 642 -9 642 -8 653 c 0,41,42
 -8 676 -8 676 18 676 c 0,43,44
 29 676 29 676 53 672 c 0,45,46
 83 667 83 667 86 667 c 0,47,48
 88 667 88 667 187 688 c 1,49,-1
 189 662 l 1,50,-1
 256 519 l 1,51,-1
 291 461 l 1,52,-1
 299 472 l 2,53,54
 347 538 347 538 365 594 c 0,55,56
 366 596 366 596 373 619 c 2,57,-1
 389 672 l 1,58,59
 393 671 393 671 472 666 c 0,60,61
 485 665 485 665 509 670.5 c 128,-1,62
 533 676 533 676 544 676 c 0,63,64
 563 676 563 676 568 657 c 0,65,66
 570 641 570 641 566 631 c 2,67,-1
 535 571 l 1,68,-1
 535 569 l 1,69,-1
 534 562 l 1,70,-1
 534 563 l 1,71,72
 470 442 470 442 409 354 c 0,73,74
 400 342 400 342 380 314 c 1,75,76
 474 226 474 226 534 86 c 1,77,-1
 535 79 l 1,78,-1
 535 77 l 1,0,-1
EndSplineSet
EndChar

StartChar: y
Encoding: 121 121 87
Width: 585
GlyphClass: 1
Flags: W
LayerCount: 2
Fore
SplineSet
372 230 m 1,0,-1
 366 0 l 1,1,2
 344 -11 344 -11 329 -11 c 0,3,4
 318 -11 318 -11 308 -6 c 1,5,-1
 265 -11 l 1,6,-1
 203 0 l 1,7,-1
 203 284 l 1,8,9
 183 321 183 321 128 421 c 0,10,11
 95 481 95 481 83 507 c 0,12,13
 60 557 60 557 49 599 c 0,14,15
 48 600 48 600 50.5 606 c 128,-1,16
 53 612 53 612 53 613 c 0,17,18
 53 619 53 619 46.5 624.5 c 128,-1,19
 40 630 40 630 40 631 c 2,20,-1
 -4 702 l 1,21,-1
 -11 702 l 2,22,23
 -14 702 -14 702 13 712 c 1,24,25
 43 713 43 713 102 722 c 1,26,-1
 175 743 l 1,27,-1
 175 726 l 1,28,29
 182 702 182 702 197 656 c 0,30,31
 217 595 217 595 246 534 c 2,32,-1
 293 435 l 1,33,34
 310 459 310 459 337 504 c 0,35,36
 355 535 355 535 371 585 c 0,37,38
 375 602 375 602 392 667 c 2,39,-1
 406 722 l 1,40,41
 432 724 432 724 479 718 c 0,42,43
 499 714 499 714 506 714 c 0,44,45
 508 714 508 714 516.5 715 c 128,-1,46
 525 716 525 716 531 717 c 0,47,48
 542 719 542 719 572 710 c 0,49,50
 575 709 575 709 577 707 c 1,51,52
 575 705 575 705 569 708 c 1,53,-1
 549 641 l 2,54,55
 547 633 547 633 540 627 c 128,-1,56
 533 621 533 621 532 616 c 2,57,-1
 532 605 l 1,58,59
 521 549 521 549 453 425 c 0,60,61
 432 387 432 387 369 272 c 1,62,-1
 372 230 l 1,0,-1
EndSplineSet
EndChar

StartChar: z
Encoding: 122 122 88
Width: 693
GlyphClass: 1
Flags: W
LayerCount: 2
Fore
SplineSet
36 515 m 1,0,-1
 41 712 l 1,1,-1
 236 715 l 1,2,-1
 316 712 l 2,3,4
 325 711 325 711 324 709 c 1,5,6
 361 702 361 702 392 702 c 0,7,8
 425 702 425 702 500 710 c 0,9,10
 569 718 569 718 608 716 c 1,11,12
 607 633 607 633 619 524 c 1,13,14
 553 479 553 479 435 337 c 128,-1,15
 317 195 317 195 249 148 c 1,16,17
 363 147 363 147 605 196 c 1,18,19
 618 186 618 186 618 163 c 0,20,21
 616 162 616 162 616 158 c 0,22,23
 616 147 616 147 621 126 c 0,24,25
 627 101 627 101 627 94 c 2,26,-1
 627 43 l 2,27,28
 627 32 627 32 638 -3 c 1,29,30
 586 -21 586 -21 567 -21 c 0,31,32
 540 -21 540 -21 525 4 c 1,33,34
 482 -5 482 -5 419 -5 c 0,35,36
 394 -5 394 -5 345 -3 c 128,-1,37
 296 -1 296 -1 271 -1 c 0,38,39
 176 -1 176 -1 118 -25 c 0,40,41
 72 -44 72 -44 55 -44 c 0,42,43
 46 -44 46 -44 37 -41 c 1,44,45
 37 113 37 113 54 198 c 1,46,47
 110 226 110 226 205 346 c 0,48,49
 317 488 317 488 353 519 c 1,50,51
 287 528 287 528 242 526 c 2,52,-1
 36 515 l 1,0,-1
EndSplineSet
EndChar

StartChar: braceleft
Encoding: 123 123 89
Width: 290
GlyphClass: 1
Flags: W
LayerCount: 2
Fore
SplineSet
155 -36 m 1,0,1
 197 -34 197 -34 219 -34 c 2,2,-1
 280 -34 l 1,3,-1
 280 -155 l 1,4,-1
 219 -155 l 2,5,6
 183 -155 183 -155 118.5 -159.5 c 128,-1,7
 54 -164 54 -164 17 -164 c 2,8,-1
 5 -164 l 1,9,-1
 5 -122 l 1,10,-1
 3 -122 l 1,11,-1
 6 254 l 2,12,13
 7 426 7 426 16 510 c 0,14,15
 20 545 20 545 23 563 c 0,16,17
 21 570 21 570 14 573 c 0,18,19
 11 578 11 578 13 603 c 2,20,-1
 19 666 l 1,21,-1
 10 666 l 1,22,-1
 10 787 l 1,23,-1
 71 787 l 2,24,25
 109 787 109 787 182.5 789 c 128,-1,26
 256 791 256 791 293 791 c 2,27,-1
 354 791 l 1,28,-1
 354 669 l 1,29,-1
 293 669 l 2,30,31
 216 669 216 669 178 668 c 1,32,33
 170 568 170 568 167 366 c 0,34,35
 163 104 163 104 155 -36 c 1,0,1
EndSplineSet
EndChar

StartChar: bar
Encoding: 124 124 90
Width: 244
GlyphClass: 1
Flags: W
LayerCount: 2
Fore
SplineSet
203 521 m 2,0,1
 203 493 203 493 199 487 c 0,2,3
 194 485 194 485 189 477 c 1,4,5
 191 458 191 458 191 416 c 0,6,7
 191 317 191 317 176 127 c 2,8,-1
 152 -177 l 1,9,10
 51 -147 51 -147 15 -149 c 1,11,12
 15 -8 15 -8 36 272.5 c 128,-1,13
 57 553 57 553 57 694 c 1,14,-1
 53 727 l 1,15,16
 68 721 68 721 113 712 c 0,17,18
 145 702 145 702 209 681 c 1,19,20
 208 680 208 680 203 680 c 1,21,-1
 203 521 l 2,0,1
EndSplineSet
EndChar

StartChar: braceright
Encoding: 125 125 91
Width: 290
GlyphClass: 1
Flags: W
LayerCount: 2
Fore
SplineSet
124 -36 m 1,0,1
 82 -34 82 -34 60 -34 c 2,2,-1
 -1 -34 l 1,3,-1
 -1 -155 l 1,4,-1
 60 -155 l 2,5,6
 96 -155 96 -155 160.5 -159.5 c 128,-1,7
 225 -164 225 -164 262 -164 c 2,8,-1
 274 -164 l 1,9,-1
 274 -122 l 1,10,-1
 276 -122 l 1,11,-1
 273 254 l 2,12,13
 272 426 272 426 263 510 c 0,14,15
 259 545 259 545 256 563 c 0,16,17
 258 570 258 570 263 573.5 c 128,-1,18
 268 577 268 577 266 603 c 2,19,-1
 260 666 l 1,20,-1
 268 666 l 1,21,-1
 268 787 l 1,22,-1
 208 787 l 2,23,24
 170 787 170 787 96.5 789 c 128,-1,25
 23 791 23 791 -14 791 c 2,26,-1
 -75 791 l 1,27,-1
 -75 669 l 1,28,-1
 -14 669 l 2,29,30
 63 669 63 669 101 668 c 1,31,32
 109 568 109 568 112 366 c 0,33,34
 116 104 116 104 124 -36 c 1,0,1
EndSplineSet
EndChar

